<?xml version="1.0" encoding="UTF-8"?>
<svg version="1.1" xmlns="http://www.w3.org/2000/svg" width="185" height="185">
<path d="M0 0 C4.68824448 3.31791072 8.65428312 7.23839451 12.68688965 11.31091309 C13.56476135 12.18495789 14.44263306 13.05900269 15.34710693 13.95953369 C17.18712516 15.79684884 19.02217798 17.63914916 20.85241699 19.48620605 C23.63277662 22.28799428 26.43385193 25.0677798 29.2376709 27.84606934 C31.0345276 29.6455696 32.83014292 31.44631046 34.62438965 33.24841309 C35.450578 34.06650452 36.27676636 34.88459595 37.12799072 35.72747803 C48.9590269 47.74858808 55.22947192 59.66689586 55.39001465 76.54528809 C55.21546763 94.89599824 47.50976682 107.08306694 34.62438965 119.84216309 C33.75034485 120.72003479 32.87630005 121.59790649 31.97576904 122.50238037 C30.13845389 124.3423986 28.29615358 126.17745142 26.44909668 128.00769043 C23.64730846 130.78805006 20.86752294 133.58912536 18.0892334 136.39294434 C16.28973314 138.18980104 14.48899228 139.98541636 12.68688965 141.77966309 C11.86879822 142.60585144 11.05070679 143.43203979 10.20782471 144.28326416 C-1.81328534 156.11430033 -13.73159313 162.38474536 -30.60998535 162.54528809 C-48.9606955 162.37074106 -61.14776421 154.66504026 -73.90686035 141.77966309 C-75.22366791 140.46859589 -75.22366791 140.46859589 -76.56707764 139.13104248 C-78.40709586 137.29372733 -80.24214868 135.45142702 -82.0723877 133.60437012 C-84.85274733 130.80258189 -87.65382263 128.02279638 -90.4576416 125.24450684 C-92.25449831 123.44500657 -94.05011362 121.64426572 -95.84436035 119.84216309 C-96.67054871 119.02407166 -97.49673706 118.20598022 -98.34796143 117.36309814 C-110.1789976 105.34198809 -116.44944262 93.42368031 -116.60998535 76.54528809 C-116.43543833 58.19457793 -108.72973753 46.00750923 -95.84436035 33.24841309 C-94.97031555 32.37054138 -94.09627075 31.49266968 -93.19573975 30.5881958 C-91.3584246 28.74817757 -89.51612428 26.91312475 -87.66906738 25.08288574 C-84.86727916 22.30252611 -82.08749364 19.50145081 -79.3092041 16.69763184 C-77.50970384 14.90077513 -75.70896298 13.10515981 -73.90686035 11.31091309 C-73.08876892 10.48472473 -72.27067749 9.65853638 -71.42779541 8.80731201 C-51.02625373 -11.27164713 -24.40440318 -15.69560051 0 0 Z " fill="#EC1D24" transform="translate(123.1099853515625,15.9547119140625)"/>
<path d="M0 0 C7.67535481 7.48347094 11.54154729 13.45636725 11.93359375 24.47265625 C11.95722138 27.15106486 11.96209469 29.82230229 11.9375 32.5 C11.93445862 33.19447235 11.93141724 33.8889447 11.92828369 34.60446167 C11.86246482 44.72725752 11.33738317 53.91466876 7.5 63.4375 C7.26442383 64.05383301 7.02884766 64.67016602 6.78613281 65.30517578 C2.06808826 77.61217959 2.06808826 77.61217959 -2.5 82.4375 C-5.6875 82.8125 -5.6875 82.8125 -8.5 82.4375 C-9.5 81.4375 -9.5 81.4375 -9.875 78.5 C-9.8293277 74.0423836 -7.86330502 70.76761168 -5.8046875 66.90625 C-0.22870892 56.35529652 0.85003179 45.09748172 0.8125 33.3125 C0.82861328 32.29285156 0.84472656 31.27320313 0.86132812 30.22265625 C0.86584144 23.19090469 0.37706182 16.08915539 -4.125 10.375 C-7.94297845 8.86790324 -11.47771639 8.54685149 -15.5 9.4375 C-19.76034712 13.33526439 -22.19719169 17.49771475 -22.79052734 23.25805664 C-23.13592569 46.75814335 -22.5053992 72.44707964 -6.5 91.4375 C-2.46408103 94.28098837 1.27973821 95.10199041 6.140625 94.90625 C14.51650668 93.24216755 20.44358545 85.80348954 25.5 79.4375 C26.49 77.9525 26.49 77.9525 27.5 76.4375 C30 76.125 30 76.125 32.5 76.4375 C33.16 77.0975 33.82 77.7575 34.5 78.4375 C34.36886144 83.80646675 31.97237191 87.03894118 28.5625 90.9375 C28.07104492 91.50702393 27.57958984 92.07654785 27.07324219 92.66333008 C20.20267877 100.33487162 12.38394602 104.54513663 2.125 105.875 C-5.99273843 104.89527295 -12.51079382 99.70865499 -17.5 93.4375 C-31.57042959 73.33255427 -36.43662589 44.01647065 -32.9921875 19.87890625 C-31.16657268 11.47478287 -27.86227988 4.28110519 -20.5 -0.5625 C-14.09802138 -2.69649287 -6.15644467 -2.7484128 0 0 Z " fill="#FEF6F6" transform="translate(101.5,39.5625)"/>
<path d="M0 0 C2.5625 0.3125 2.5625 0.3125 4.4375 1.5 C5.5625 3.3125 5.5625 3.3125 5.375 5.875 C4.5625 8.3125 4.5625 8.3125 2.5625 10.3125 C-0.73464793 9.98278521 -2.0601839 9.6898161 -4.4375 7.3125 C-4.6875 4.8125 -4.6875 4.8125 -4.4375 2.3125 C-2.4375 0.3125 -2.4375 0.3125 0 0 Z " fill="#FDEDEE" transform="translate(71.4375,134.6875)"/>
</svg>
