<?xml version="1.0" encoding="UTF-8"?>
<svg version="1.1" xmlns="http://www.w3.org/2000/svg" width="450" height="450">
<path d="M0 0 C15.49061655 -0.02340261 30.98123176 -0.04101527 46.47186184 -0.05181217 C53.66508514 -0.05695952 60.85829744 -0.06397235 68.05151367 -0.07543945 C74.32409217 -0.08543411 80.59666269 -0.09186478 86.86924893 -0.09408849 C90.18781688 -0.0953875 93.50635681 -0.09895347 96.82491875 -0.10573006 C100.53750832 -0.11300847 104.25005091 -0.11398807 107.96264648 -0.11352539 C109.59724319 -0.1189183 109.59724319 -0.1189183 111.26486206 -0.12442017 C117.26077359 -0.11635579 123.05393782 0.21795533 129 1 C129 1.66 129 2.32 129 3 C129.928125 3.0825 130.85625 3.165 131.8125 3.25 C139.54096598 4.34734811 146.91196327 7.84976146 154 11 C154 11.66 154 12.32 154 13 C154.86753906 13.24234375 155.73507812 13.4846875 156.62890625 13.734375 C160.30752401 15.11545513 162.83416509 16.85215384 165.9375 19.25 C166.46110107 19.65404053 166.98470215 20.05808105 167.52416992 20.47436523 C169.02424407 21.63918059 170.51247451 22.81920146 172 24 C173.03253906 24.81404297 173.03253906 24.81404297 174.0859375 25.64453125 C193.80471501 41.83891187 205.95899312 67.97504756 209 93 C209.13600693 96.43876979 209.1396117 99.87144472 209.125 103.3125 C209.12886719 104.21162109 209.13273438 105.11074219 209.13671875 106.03710938 C209.12323033 115.36435168 208.09484903 123.75447399 205.375 132.6875 C204.97958008 133.99134644 204.97958008 133.99134644 204.57617188 135.3215332 C201.05001767 146.5141825 195.83346688 156.44824796 189 166 C188.53335938 166.69351563 188.06671875 167.38703125 187.5859375 168.1015625 C186.44660449 169.7739168 185.23048809 171.39352943 184 173 C183.34 173 182.68 173 182 173 C181.73832031 173.59941406 181.47664062 174.19882812 181.20703125 174.81640625 C179.92779812 177.13061764 178.73749558 178.29659445 176.6875 179.9375 C174.50464529 181.7259169 172.5773281 183.44491778 170.625 185.5 C161.7 194 161.7 194 157 194 C156.67 194.66 156.34 195.32 156 196 C143.32773803 204.57241251 127.0716687 208.92141987 112 209 C110.69160156 209.03738281 109.38320312 209.07476562 108.03515625 209.11328125 C94.10103328 209.43418832 81.18828089 207.54401064 68 203 C67.01257813 202.69191406 66.02515625 202.38382813 65.0078125 202.06640625 C56.63739226 199.0987118 48.99356365 194.17732787 41.6875 189.1875 C41.11829834 188.80263428 40.54909668 188.41776855 39.96264648 188.02124023 C38.6019471 187.06864527 37.29475031 186.0404622 36 185 C36 184.34 36 183.68 36 183 C35.01 183 34.02 183 33 183 C30.984375 180.91015625 30.984375 180.91015625 28.75 178.0625 C27.95722656 177.05960938 27.16445312 176.05671875 26.34765625 175.0234375 C25.57292969 174.02570313 24.79820312 173.02796875 24 172 C23.00806641 170.75089844 23.00806641 170.75089844 21.99609375 169.4765625 C13 158.09057775 13 158.09057775 13 154 C12.34 154 11.68 154 11 154 C7.20387329 145.50538859 4.37943003 136.98895791 2 128 C1.7834375 127.236875 1.566875 126.47375 1.34375 125.6875 C-1.74540656 114.42116431 -1.14776947 102.6272029 -1.1328125 91.0546875 C-1.13348812 89.19833361 -1.13446029 87.34197981 -1.13571167 85.48562622 C-1.13718161 81.59734249 -1.13506018 77.70908181 -1.13037109 73.82080078 C-1.12473019 68.91119948 -1.12792113 64.00165355 -1.13394356 59.09205437 C-1.13761644 55.25313934 -1.13637941 51.41423667 -1.13381577 47.5753212 C-1.13316197 45.76978676 -1.13391874 43.9642511 -1.13629532 42.15871811 C-1.15073507 28.08482331 -0.67314628 14.05725208 0 0 Z M84 34 C83.28714844 34.18175781 82.57429688 34.36351562 81.83984375 34.55078125 C73.17310674 36.78957385 64.83352319 41.17045415 58 47 C58 47.66 58 48.32 58 49 C57.1646875 49.309375 57.1646875 49.309375 56.3125 49.625 C53.71000637 51.17242864 52.14907828 53.06758157 50.2890625 55.4296875 C49 57 49 57 46.4375 59.4375 C42.99321853 63.05841129 40 66.8264339 40 72 C39.34 72 38.68 72 38 72 C38 73.65 38 75.3 38 77 C37.34 77 36.68 77 36 77 C35.51891725 78.41601714 35.04021859 79.83284437 34.5625 81.25 C34.29566406 82.03890625 34.02882812 82.8278125 33.75390625 83.640625 C30.16322985 94.87776771 29.72979046 108.68865878 33 120 C33.144375 120.78246094 33.28875 121.56492187 33.4375 122.37109375 C36.32060001 135.84558198 43.93512465 148.62925399 54 158 C54.66 158 55.32 158 56 158 C56 158.66 56 159.32 56 160 C73.24188062 174.80055239 93.63641193 177.66480126 115.4765625 177.390625 C117.26686969 177.38313767 119.05718524 177.37745658 120.84750366 177.37347412 C125.49340621 177.3584134 130.13878511 177.31930809 134.78448486 177.2746582 C139.55156374 177.23327571 144.31872966 177.21537264 149.0859375 177.1953125 C158.39085141 177.15278852 167.69538168 177.08478406 177 177 C177.02330097 167.70650557 177.04100476 158.41302138 177.05181217 149.11950397 C177.0570025 144.80288464 177.0640291 140.48628547 177.07543945 136.16967773 C177.08640656 131.99401339 177.09230573 127.8183683 177.09487724 123.64269066 C177.09670683 122.05972173 177.10027875 120.4767537 177.10573006 118.89379311 C177.38180493 100.12387868 177.38180493 100.12387868 173.375 81.9375 C172.97522949 80.79172485 172.97522949 80.79172485 172.56738281 79.62280273 C165.32119879 59.64530063 150.53265944 44.94088367 131.51953125 35.80859375 C117.56860806 30.0889263 98.17794933 28.57014706 84 34 Z " fill="#375E9A" transform="translate(120,88)"/>
<path d="M0 0 C0.99 0.66 1.98 1.32 3 2 C3 2.66 3 3.32 3 4 C3.57621094 4.20753906 4.15242188 4.41507813 4.74609375 4.62890625 C7.86855771 6.52836006 9.1494452 8.8375403 11.0625 11.9375 C11.73410156 12.99839844 12.40570313 14.05929688 13.09765625 15.15234375 C17.73572227 23.75846856 18.41268563 32.63765416 18.07421875 42.23046875 C18.03455742 43.90511955 18.03455742 43.90511955 17.99409485 45.61360168 C17.90713935 49.13882907 17.79771061 52.66293093 17.6875 56.1875 C17.62415726 58.59436219 17.56229422 61.00126381 17.50195312 63.40820312 C17.35172949 69.27269969 17.18310853 75.13644293 17 81 C16.01 81 15.02 81 14 81 C13.67 81.66 13.34 82.32 13 83 C13 82.34 13 81.68 13 81 C12.42974091 81.01110306 11.85948181 81.02220612 11.27194214 81.03364563 C5.26853301 81.1453531 -0.73457508 81.22012221 -6.73876953 81.2746582 C-8.97131365 81.29960733 -11.20377775 81.3335792 -13.43603516 81.37719727 C-26.31727008 81.62236184 -37.22190761 81.6039241 -49 76 C-50.485 75.505 -50.485 75.505 -52 75 C-53.76913436 73.38250573 -55.37639729 71.75682139 -57 70 C-57.64710938 69.31164062 -58.29421875 68.62328125 -58.9609375 67.9140625 C-67.78215261 58.30582448 -72.33202126 49.06369164 -72.09887695 35.69775391 C-71.58824513 24.34785851 -68.22054302 13.72986429 -60.4375 5.1875 C-58 3 -58 3 -56 3 C-56 2.34 -56 1.68 -56 1 C-37.90404372 -12.10614635 -18.252205 -12.39295212 0 0 Z " fill="#375E9A" transform="translate(251,156)"/>
<path d="M0 0 C1.66577625 3.33155251 1.12007856 7.06536059 1.09765625 10.7265625 C1.0962413 11.58937836 1.09482635 12.45219421 1.09336853 13.34115601 C1.08776188 16.1024723 1.07520827 18.86370812 1.0625 21.625 C1.05748586 23.4947905 1.0529228 25.36458226 1.04882812 27.234375 C1.03779029 31.82294777 1.0205212 36.41146023 1 41 C-6.75 41.125 -6.75 41.125 -9 40 C-9 36.37 -9 32.74 -9 29 C-11.64 28.67 -14.28 28.34 -17 28 C-17.33 28.66 -17.66 29.32 -18 30 C-18.66 29.67 -19.32 29.34 -20 29 C-20 32.63 -20 36.26 -20 40 C-22.75 41.125 -22.75 41.125 -26 42 C-28.203125 41.0546875 -28.203125 41.0546875 -30 40 C-29.97704958 35.66552019 -29.89952963 31.33362949 -29.8125 27 C-29.80669922 25.77925781 -29.80089844 24.55851562 -29.79492188 23.30078125 C-29.61780734 16.01940592 -29.121875 10.4692733 -24 5 C-20.25415513 1.96266197 -16.73073619 1.4089398 -12 0.8125 C-10.80375 0.65394531 -9.6075 0.49539063 -8.375 0.33203125 C-5.54848282 0.05395954 -2.83565925 -0.06981737 0 0 Z M-19 12 C-20.29920746 15.54588501 -20.29920746 15.54588501 -21 19 C-19.91447634 20.31262571 -19.91447634 20.31262571 -17.27734375 20.09765625 C-16.17519531 20.08605469 -15.07304688 20.07445312 -13.9375 20.0625 C-12.83277344 20.05347656 -11.72804688 20.04445313 -10.58984375 20.03515625 C-9.73519531 20.02355469 -8.88054687 20.01195312 -8 20 C-8.33 16.7 -8.66 13.4 -9 10 C-14.38741973 9.65905049 -14.38741973 9.65905049 -19 12 Z " fill="#D3040B" transform="translate(120,323)"/>
<path d="M0 0 C1.9375 0.625 1.9375 0.625 3.9375 2.625 C4.12503311 5.41010224 4.19311232 8.09399646 4.16796875 10.87890625 C4.16751053 11.69495834 4.16705231 12.51101044 4.1665802 13.35179138 C4.16355744 15.07755995 4.15567042 16.80332578 4.14331055 18.52905273 C4.12504978 21.18027333 4.12280086 23.83114496 4.12304688 26.48242188 C4.11813194 28.15625304 4.11230373 29.83008182 4.10546875 31.50390625 C4.10435593 32.30180069 4.1032431 33.09969513 4.10209656 33.92176819 C4.05354901 39.50895099 4.05354901 39.50895099 2.9375 40.625 C1.53656403 40.48048239 0.14087057 40.28382781 -1.25 40.0625 C-5.44006974 39.53211142 -8.08616611 40.12282942 -12.0625 41.625 C-14.9375 42.1875 -14.9375 42.1875 -18.0625 41.625 C-22.33537807 38.70439982 -26.14395216 35.53113727 -28.0625 30.625 C-28.51899871 24.96441603 -28.18747779 21.53567938 -25.0625 16.625 C-22.69504428 13.88762933 -21.52120295 12.77790098 -18.0625 11.625 C-16.00104893 11.556009 -13.93748599 11.54032273 -11.875 11.5625 C-10.24498047 11.57603516 -10.24498047 11.57603516 -8.58203125 11.58984375 C-7.75058594 11.60144531 -6.91914063 11.61304688 -6.0625 11.625 C-6.7225 8.325 -7.3825 5.025 -8.0625 1.625 C-4.82956744 -0.53028837 -3.71388295 -0.67525145 0 0 Z M-18.0625 20.625 C-19.60413175 23.7082635 -19.35997535 26.23378099 -19.0625 29.625 C-17.5625 31.79166667 -17.5625 31.79166667 -15.0625 32.625 C-11.96601124 32.78948881 -11.96601124 32.78948881 -9.0625 31.625 C-5.72378362 27.84112143 -5.774209 24.52594703 -6.0625 19.625 C-10.57233435 18.25838353 -13.68340851 19.02494734 -18.0625 20.625 Z " fill="#BD0C11" transform="translate(319.0625,323.375)"/>
<path d="M0 0 C1.35931641 0.02126953 1.35931641 0.02126953 2.74609375 0.04296875 C6.40403272 0.12425628 9.38284254 0.21094751 12.875 1.375 C12.89964928 6.62605442 12.91783568 11.87707545 12.92993164 17.12817383 C12.93497218 18.91594021 12.94180454 20.70370245 12.95043945 22.49145508 C12.9625173 25.05551168 12.96823094 27.61951397 12.97265625 30.18359375 C12.97781754 30.9877623 12.98297882 31.79193085 12.98829651 32.62046814 C12.98849215 34.53901715 12.93701983 36.45745368 12.875 38.375 C11.875 39.375 11.875 39.375 8.4375 39.625 C7.261875 39.5425 6.08625 39.46 4.875 39.375 C2.875 36.375 2.875 36.375 3.25 33.1875 C3.45625 32.259375 3.6625 31.33125 3.875 30.375 C2.1115625 30.436875 2.1115625 30.436875 0.3125 30.5 C-5.11343027 30.5 -9.57816399 29.40622401 -14.125 26.375 C-14.125 25.715 -14.125 25.055 -14.125 24.375 C-14.785 24.375 -15.445 24.375 -16.125 24.375 C-18.33769086 18.70497967 -19.13972611 14.04533187 -16.9375 8.25 C-12.12856324 0.62203135 -8.60937542 -0.35820931 0 0 Z M-9.125 10.375 C-10.2966367 13.74260187 -10.2966367 13.74260187 -10.125 17.375 C-8.90064845 20.01737846 -8.90064845 20.01737846 -6.125 21.375 C-3.09402943 21.69267905 -0.15980437 21.60844649 2.875 21.375 C3.68555074 17.61699202 4.16166538 15.1506828 2.8125 11.5 C0.98533996 9.1409618 0.98533996 9.1409618 -2.0625 8.4375 C-5.99847339 8.30057465 -5.99847339 8.30057465 -9.125 10.375 Z " fill="#C70F10" transform="translate(225.125,333.625)"/>
<path d="M0 0 C0 0.66 0 1.32 0 2 C0.66 2 1.32 2 2 2 C5.24859422 6.15820061 5.6643702 9.8816456 6 15 C5.67 15.66 5.34 16.32 5 17 C2.9375 17.625 2.9375 17.625 1 18 C1.66 18.66 2.32 19.32 3 20 C3.125 22.375 3.125 22.375 2 25 C-2.01878697 28.34029047 -6.03524082 29.31543518 -11.1875 28.9375 C-17.09736852 27.9977044 -20.33337489 26.22905295 -23.875 21.375 C-26.18730122 17.4193652 -26.40511827 14.5709682 -25.58203125 10.109375 C-24.49908033 6.18458643 -23.14296866 3.14296866 -20.25 0.25 C-13.35447956 -3.58084469 -6.98826176 -3.49413088 0 0 Z M-16 8 C-16 8.66 -16 9.32 -16 10 C-12.04 10 -8.08 10 -4 10 C-4.33 9.01 -4.66 8.02 -5 7 C-9.06231189 4.96884405 -12.33315625 5.5554375 -16 8 Z M-15 17 C-15 17.66 -15 18.32 -15 19 C-10.61563621 21.19218189 -4.63098598 20.15774649 0 19 C-4.49143202 16.19285499 -9.97927502 15.32642501 -15 17 Z " fill="#C31C1F" transform="translate(352,336)"/>
<path d="M0 0 C0.66 0.99 1.32 1.98 2 3 C1.33355469 2.98839844 0.66710937 2.97679687 -0.01953125 2.96484375 C-12.30835692 2.84453357 -22.50770864 3.00616692 -32.5 11 C-34.14144603 12.99182655 -34.14144603 12.99182655 -35 15.6875 C-35.33 16.450625 -35.66 17.21375 -36 18 C-36.61875 18.144375 -37.2375 18.28875 -37.875 18.4375 C-40.37769498 18.84893844 -40.37769498 18.84893844 -42 22 C-44 25 -44 25 -46.25 25.875 C-46.8275 25.91625 -47.405 25.9575 -48 26 C-48.33 28.31 -48.66 30.62 -49 33 C-49.66 33 -50.32 33 -51 33 C-51.60603038 50.30591891 -51.60603038 50.30591891 -45.5 66.0625 C-43.61634649 68.95743652 -42.12926695 71.71485977 -41 75 C-40.34 75 -39.68 75 -39 75 C-39 75.66 -39 76.32 -39 77 C-38.2575 77.268125 -37.515 77.53625 -36.75 77.8125 C-34 79 -34 79 -32.13887024 80.43902588 C-24.49622477 86.01672366 -15.68399593 86.56510735 -6.55078125 86.390625 C-4.84283638 86.38213531 -4.84283638 86.38213531 -3.10038757 86.37347412 C0.49602331 86.35128579 4.09139601 86.30112144 7.6875 86.25 C10.14256362 86.22991238 12.59764304 86.2116656 15.05273438 86.1953125 C21.0355037 86.15147872 27.01767765 86.08474456 33 86 C33.05074164 79.1132319 33.08575113 72.22651209 33.10986328 65.33959961 C33.11991609 62.99713337 33.1335603 60.65467965 33.15087891 58.31225586 C33.17515852 54.94381617 33.18649042 51.57554253 33.1953125 48.20703125 C33.20563507 47.16102249 33.21595764 46.11501373 33.22659302 45.03730774 C33.22674408 44.05666855 33.22689514 43.07602936 33.22705078 42.06567383 C33.231492 41.20629715 33.23593323 40.34692047 33.24050903 39.46150208 C32.96875511 36.68022261 32.06802889 34.56863543 31 32 C31 31.01 31 30.02 31 29 C30.34 28.67 29.68 28.34 29 28 C29 26.68 29 25.36 29 24 C28.34 24 27.68 24 27 24 C26.401875 23.071875 25.80375 22.14375 25.1875 21.1875 C22.96174405 17.94425561 21.30677024 16.92894931 18 15 C18 14.01 18 13.02 18 12 C17.01 11.67 16.02 11.34 15 11 C14.505 10.01 14.505 10.01 14 9 C12.35636866 8.27840576 10.68949614 7.60648579 9 7 C9 6.34 9 5.68 9 5 C7.35 5 5.7 5 4 5 C3.505 3.515 3.505 3.515 3 2 C8.80420319 3.3301299 13.09205171 5.67113073 18 9 C18.99 9.66 19.98 10.32 21 11 C21 11.66 21 12.32 21 13 C21.57621094 13.20753906 22.15242188 13.41507813 22.74609375 13.62890625 C25.86855771 15.52836006 27.1494452 17.8375403 29.0625 20.9375 C29.73410156 21.99839844 30.40570313 23.05929688 31.09765625 24.15234375 C35.73572227 32.75846856 36.41268563 41.63765416 36.07421875 51.23046875 C36.03455742 52.90511955 36.03455742 52.90511955 35.99409485 54.61360168 C35.90713935 58.13882907 35.79771061 61.66293093 35.6875 65.1875 C35.62415726 67.59436219 35.56229422 70.00126381 35.50195312 72.40820312 C35.35172949 78.27269969 35.18310853 84.13644293 35 90 C34.01 90 33.02 90 32 90 C31.67 90.66 31.34 91.32 31 92 C31 91.34 31 90.68 31 90 C30.42974091 90.01110306 29.85948181 90.02220612 29.27194214 90.03364563 C23.26853301 90.1453531 17.26542492 90.22012221 11.26123047 90.2746582 C9.02868635 90.29960733 6.79622225 90.3335792 4.56396484 90.37719727 C-8.31727008 90.62236184 -19.22190761 90.6039241 -31 85 C-32.485 84.505 -32.485 84.505 -34 84 C-35.76913436 82.38250573 -37.37639729 80.75682139 -39 79 C-39.64710938 78.31164062 -40.29421875 77.62328125 -40.9609375 76.9140625 C-49.78215261 67.30582448 -54.33202126 58.06369164 -54.09887695 44.69775391 C-53.58824513 33.34785851 -50.22054302 22.72986429 -42.4375 14.1875 C-40 12 -40 12 -38 12 C-38 11.34 -38 10.68 -38 10 C-26.59961037 1.7431733 -14.00414997 -1.80584488 0 0 Z " fill="#364A6C" transform="translate(233,147)"/>
<path d="M0 0 C1.06036929 4.90420798 1.0121252 9.52933921 0.83984375 14.51171875 C0.80808051 17.25390779 0.80808051 17.25390779 3 20 C5.97065509 19.65772428 5.97065509 19.65772428 9 19 C10.65497356 15.69005287 10.10084335 12.00877 10.0625 8.375 C10.05798828 7.57320313 10.05347656 6.77140625 10.04882812 5.9453125 C10.03703168 3.96350994 10.01909605 1.98174567 10 0 C13.3 0 16.6 0 20 0 C20 9.24 20 18.48 20 28 C15 29 15 29 12.4375 28.4375 C10.01818417 27.74276861 10.01818417 27.74276861 8.14453125 28.99609375 C5.53209824 30.21903598 4.07631202 30.04063412 1.25 29.625 C0.45078125 29.51414062 -0.3484375 29.40328125 -1.171875 29.2890625 C-2.07679688 29.14597656 -2.07679688 29.14597656 -3 29 C-3 28.34 -3 27.68 -3 27 C-3.99 26.67 -4.98 26.34 -6 26 C-9.64932484 20.74293066 -9.35810233 15.75793493 -9.1875 9.625 C-9.17396484 8.69816406 -9.16042969 7.77132813 -9.14648438 6.81640625 C-9.11133881 4.54366002 -9.06214132 2.27214153 -9 0 C-5.93109813 -1.53445094 -3.29905734 -0.54984289 0 0 Z " fill="#D2090F" transform="translate(252,335)"/>
<path d="M0 0 C15.49061655 -0.02340261 30.98123176 -0.04101527 46.47186184 -0.05181217 C53.66508514 -0.05695952 60.85829744 -0.06397235 68.05151367 -0.07543945 C74.32409217 -0.08543411 80.59666269 -0.09186478 86.86924893 -0.09408849 C90.18781688 -0.0953875 93.50635681 -0.09895347 96.82491875 -0.10573006 C100.53750832 -0.11300847 104.25005091 -0.11398807 107.96264648 -0.11352539 C109.59724319 -0.1189183 109.59724319 -0.1189183 111.26486206 -0.12442017 C117.26077359 -0.11635579 123.05393782 0.21795533 129 1 C129 1.66 129 2.32 129 3 C129.99 3.103125 130.98 3.20625 132 3.3125 C136.28297163 3.90808706 139.99996371 5.38595027 144 7 C144 7.33 144 7.66 144 8 C143.01257813 7.91621094 142.02515625 7.83242187 141.0078125 7.74609375 C139.08582031 7.59333984 139.08582031 7.59333984 137.125 7.4375 C135.21074219 7.28087891 135.21074219 7.28087891 133.2578125 7.12109375 C130.11356058 6.74316633 130.11356058 6.74316633 128 8 C128 7.34 128 6.68 128 6 C127.4225 6.350625 126.845 6.70125 126.25 7.0625 C123.64198224 8.14917407 122.60582371 7.93065133 120 7 C119.505 5.02 119.505 5.02 119 3 C118.34 3 117.68 3 117 3 C117 2.34 117 1.68 117 1 C60.57 1.495 60.57 1.495 3 2 C2.1508155 15.1038586 2.1508155 15.1038586 1.83886719 28.19140625 C1.83390228 29.08487762 1.82893738 29.978349 1.82382202 30.89889526 C1.80949221 33.78677194 1.80245146 36.67459397 1.796875 39.5625 C1.79404762 40.5649173 1.79122025 41.56733459 1.78830719 42.60012817 C1.77344055 47.89650727 1.76412999 53.19285997 1.75976562 58.48925781 C1.75427253 63.90850084 1.73019031 69.32749376 1.70179367 74.74665833 C1.68303766 78.96440312 1.67795503 83.18208887 1.67642975 87.39987183 C1.6734363 89.3962441 1.66552241 91.39261618 1.65224457 93.38894653 C1.56875794 106.89451118 1.68496973 120.34065984 7 133 C7.49313497 135.66572015 7.72523632 138.29815717 8 141 C8.66 141 9.32 141 10 141 C10.19335938 141.78246094 10.38671875 142.56492188 10.5859375 143.37109375 C10.84632813 144.38300781 11.10671875 145.39492187 11.375 146.4375 C11.63023437 147.44683594 11.88546875 148.45617187 12.1484375 149.49609375 C12.72573954 152.15570324 12.72573954 152.15570324 15 153 C15.40729228 155.32156597 15.74438677 157.6568787 16 160 C14.5 158.6875 14.5 158.6875 13 157 C13 156.01 13 155.02 13 154 C12.34 154 11.68 154 11 154 C7.20387329 145.50538859 4.37943003 136.98895791 2 128 C1.7834375 127.236875 1.566875 126.47375 1.34375 125.6875 C-1.74540656 114.42116431 -1.14776947 102.6272029 -1.1328125 91.0546875 C-1.13348812 89.19833361 -1.13446029 87.34197981 -1.13571167 85.48562622 C-1.13718161 81.59734249 -1.13506018 77.70908181 -1.13037109 73.82080078 C-1.12473019 68.91119948 -1.12792113 64.00165355 -1.13394356 59.09205437 C-1.13761644 55.25313934 -1.13637941 51.41423667 -1.13381577 47.5753212 C-1.13316197 45.76978676 -1.13391874 43.9642511 -1.13629532 42.15871811 C-1.15073507 28.08482331 -0.67314628 14.05725208 0 0 Z " fill="#314F7B" transform="translate(120,88)"/>
<path d="M0 0 C0.33 0.99 0.66 1.98 1 3 C1.66 3 2.32 3 3 3 C4.13955862 9.32589627 4.1142637 15.52278338 4.0625 21.9375 C4.05798828 23.00291016 4.05347656 24.06832031 4.04882812 25.16601562 C4.03711787 27.77740291 4.02071724 30.38867124 4 33 C6.64 33 9.28 33 12 33 C13.25664978 35.90600261 14 37.79604584 14 41 C10.11436275 42.29521242 6.42199731 42.14503464 2.375 42.125 C1.58609375 42.12886719 0.7971875 42.13273437 -0.015625 42.13671875 C-5.87334606 42.12665394 -5.87334606 42.12665394 -7 41 C-7.07616396 38.59835998 -7.09079718 36.22527214 -7.0625 33.82421875 C-7.05871338 33.10265091 -7.05492676 32.38108307 -7.05102539 31.63764954 C-7.03463544 28.54034598 -7.00661834 25.44317248 -6.97949219 22.34594727 C-6.96138283 20.08871065 -6.94929874 17.83149577 -6.9375 15.57421875 C-6.92920166 14.87616623 -6.92090332 14.17811371 -6.91235352 13.45890808 C-6.89573947 10.15364946 -6.97321651 7.15968363 -8 4 C-5.37801226 1.84622436 -3.35595828 0.59927826 0 0 Z " fill="#D4050A" transform="translate(177,322)"/>
<path d="M0 0 C0.99 0.33 1.98 0.66 3 1 C3.66015625 2.85546875 3.66015625 2.85546875 4.0625 5.1875 C4.58478909 7.94692735 5.13795377 10.39763145 6.0625 13.0625 C8.54801393 20.85044366 8.11872934 28.99909846 8.0625 37.08203125 C8.05871338 38.33199387 8.05492676 39.58195648 8.05102539 40.86979675 C8.036806 45.52136839 8.01361334 50.17287372 7.98962402 54.82440186 C7.96655495 59.38943711 7.95129769 63.95446003 7.9375 68.51953125 C7.92920166 69.70633987 7.92090332 70.8931485 7.91235352 72.11592102 C7.33320628 83.85446476 7.33320628 83.85446476 10 95 C10.99 95 11.98 95 13 95 C13 95.66 13 96.32 13 97 C12.34 97 11.68 97 11 97 C10.73832031 97.59941406 10.47664063 98.19882812 10.20703125 98.81640625 C8.92779812 101.13061764 7.73749558 102.29659445 5.6875 103.9375 C3.45696883 105.76708858 1.46195667 107.55116633 -0.5625 109.625 C-7.10526316 116 -7.10526316 116 -11 116 C-10.505 114.515 -10.505 114.515 -10 113 C-7.9375 112.3125 -7.9375 112.3125 -6 112 C-6 111.34 -6 110.68 -6 110 C-4.35 109.34 -2.7 108.68 -1 108 C-1 107.34 -1 106.68 -1 106 C-0.34 106 0.32 106 1 106 C1 105.34 1 104.68 1 104 C-16.00325177 102.94474184 -33.01178454 102.69761912 -50.04125977 102.46777344 C-53.76973197 102.41667025 -57.49814338 102.3614579 -61.2265625 102.30664062 C-68.48432291 102.200514 -75.7421354 102.09877436 -83 102 C-83 101.34 -83 100.68 -83 100 C-83.56847656 100.04640625 -84.13695312 100.0928125 -84.72265625 100.140625 C-90.7741545 100.42349971 -93.99759562 99.40589234 -99 96 C-99 95.34 -99 94.68 -99 94 C-98.44054687 94.18175781 -97.88109375 94.36351562 -97.3046875 94.55078125 C-83.83881051 98.77239863 -71.69354389 100.43038067 -57.69140625 100.2578125 C-56.06909348 100.2496495 -54.4467725 100.2429961 -52.82444763 100.23776245 C-48.59717898 100.22082342 -44.37024375 100.18667115 -40.14312744 100.14770508 C-33.35569009 100.08798732 -26.56808213 100.05448022 -19.78046989 100.02193832 C-17.425714 100.00808782 -15.07112967 99.98649374 -12.71644592 99.96365356 C-11.26612463 99.95362533 -9.81580219 99.94375955 -8.36547852 99.93408203 C-7.10864761 99.92281281 -5.85181671 99.91154358 -4.55690002 99.89993286 C-0.96687977 100.00093178 2.45803736 100.42217542 6 101 C5.75443359 99.4699231 5.75443359 99.4699231 5.50390625 97.90893555 C4.7857524 92.12214495 4.88855241 86.33633481 4.92483521 80.51377296 C4.9377684 78.41344312 4.944158 76.31317759 4.94897461 74.21281433 C4.9622445 68.9944628 4.98636101 63.77617253 5.01037598 58.55786133 C5.03029448 54.14315298 5.0458593 49.72846853 5.05593872 45.31372643 C5.06230881 43.26841735 5.07481661 41.22320984 5.08764648 39.17793274 C5.38518004 23.50335534 5.38518004 23.50335534 1.9375 8.375 C0 3.23131673 0 3.23131673 0 0 Z " fill="#334860" transform="translate(291,164)"/>
<path d="M0 0 C0.33 0.66 0.66 1.32 1 2 C1.99 1.67 2.98 1.34 4 1 C5.32 1.66 6.64 2.32 8 3 C8 15.87 8 28.74 8 42 C0 42 0 42 -2.5 40 C-2.995 39.34 -3.49 38.68 -4 38 C-3.34 37.01 -2.68 36.02 -2 35 C-1.75597194 32.22126717 -1.75597194 32.22126717 -1.875 29.08203125 C-1.89046875 27.90962891 -1.9059375 26.73722656 -1.921875 25.52929688 C-1.97354798 23.07095488 -2.02562474 20.61262134 -2.078125 18.15429688 C-2.16271178 11.70807931 -1.96339608 6.1586213 0 0 Z M0 11 C0 11.66 0 12.32 0 13 C1.98 13 3.96 13 6 13 C6 12.34 6 11.68 6 11 C4.02 11 2.04 11 0 11 Z " fill="#DA070E" transform="translate(195,322)"/>
<path d="M0 0 C2.88263412 2.44644196 2.98587997 2.83745269 3.34057617 6.9206543 C3.34010167 8.55525275 3.32318098 10.18989946 3.29296875 11.82421875 C3.28872391 12.68561966 3.28447906 13.54702057 3.28010559 14.43452454 C3.26331248 17.18583431 3.22565956 19.93641162 3.1875 22.6875 C3.17245396 24.5527238 3.15876541 26.41795907 3.14648438 28.28320312 C3.11340693 32.85575098 3.0616206 37.4277513 3 42 C1 43 1 43 -2.5625 42.25 C-4.2640625 41.63125 -4.2640625 41.63125 -6 41 C-7.2414206 37.27573819 -7.01823389 33.91648103 -6.87890625 30.05078125 C-6.85529526 29.27816452 -6.83168427 28.50554779 -6.80735779 27.70951843 C-6.73083079 25.2436536 -6.64675953 22.77811154 -6.5625 20.3125 C-6.50926832 18.63998971 -6.45652799 16.96746371 -6.40429688 15.29492188 C-6.27523053 11.19641048 -6.13939792 7.09817248 -6 3 C-4.02 2.01 -2.04 1.02 0 0 Z M-4 12 C0 13 0 13 0 13 Z " fill="#A42025" transform="translate(134,322)"/>
<path d="M0 0 C0.598125 0.226875 1.19625 0.45375 1.8125 0.6875 C1.8125 1.3475 1.8125 2.0075 1.8125 2.6875 C2.4725 2.6875 3.1325 2.6875 3.8125 2.6875 C3.8125 15.2275 3.8125 27.7675 3.8125 40.6875 C2.1625 41.3475 0.5125 42.0075 -1.1875 42.6875 C-2.5075 42.0275 -3.8275 41.3675 -5.1875 40.6875 C-5.5175 31.4475 -5.8475 22.2075 -6.1875 12.6875 C-5.1975 12.3575 -4.2075 12.0275 -3.1875 11.6875 C-3.5175 11.0275 -3.8475 10.3675 -4.1875 9.6875 C-4.8475 9.6875 -5.5075 9.6875 -6.1875 9.6875 C-5.58414218 3.29190714 -5.58414218 3.29190714 -3.875 0.6875 C-2.1875 -0.3125 -2.1875 -0.3125 0 0 Z " fill="#A11920" transform="translate(283.1875,322.3125)"/>
<path d="M0 0 C2.09821215 -0.39938767 2.09821215 -0.39938767 4 -1 C6 2 6 2 5.7578125 4.04296875 C5.171875 6.02864583 4.5859375 8.01432292 4 10 C1.03 9.505 1.03 9.505 -2 9 C-2 15.6 -2 22.2 -2 29 C-5.21451269 30.60725635 -8.43612536 30.05748185 -12 30 C-13.07917226 26.76248322 -13.11425601 24.42248229 -13.09765625 21.01953125 C-13.09443359 19.85615234 -13.09121094 18.69277344 -13.08789062 17.49414062 C-13.07951172 16.27919922 -13.07113281 15.06425781 -13.0625 13.8125 C-13.05798828 12.58595703 -13.05347656 11.35941406 -13.04882812 10.09570312 C-13.03703065 7.06375332 -13.02056921 4.03190094 -13 1 C-2.29090909 -1.14545455 -2.29090909 -1.14545455 0 0 Z " fill="#BA1417" transform="translate(155,334)"/>
<path d="M0 0 C1.62644801 0.15581013 3.25422361 0.29812712 4.8828125 0.4296875 C5.74003906 0.50316406 6.59726563 0.57664062 7.48046875 0.65234375 C9.25061393 0.80138108 11.02149229 0.94194159 12.79296875 1.07421875 C17.64968218 1.50641497 20.95416833 2.07180139 25 5 C26.25775336 5.59116841 27.52742244 6.15835042 28.8125 6.6875 C29.864375 7.120625 30.91625 7.55375 32 8 C32 8.66 32 9.32 32 10 C31.46632813 9.81824219 30.93265625 9.63648437 30.3828125 9.44921875 C25.33771987 7.74715463 20.27060212 6.15608253 15.1640625 4.6484375 C13.43316782 4.12979397 11.71420208 3.57140069 10 3 C-1.38534498 1.89581784 -13.11726762 0.83214505 -24 5 C-24.71285156 5.18175781 -25.42570312 5.36351563 -26.16015625 5.55078125 C-32.54384981 7.19981778 -37.72541726 9.93709634 -43.3359375 13.37890625 C-45.52209276 14.70919134 -47.69213787 15.90075761 -50 17 C-50 17.66 -50 18.32 -50 19 C-51.390625 20.33203125 -51.390625 20.33203125 -53.25 21.8125 C-59.43691514 26.97032906 -65.42558962 34.27676886 -68 42 C-68.66 42 -69.32 42 -70 42 C-70 43.65 -70 45.3 -70 47 C-70.66 47 -71.32 47 -72 47 C-71.67 47.99 -71.34 48.98 -71 50 C-71.66 50 -72.32 50 -73 50 C-75.3569916 59.58509917 -75.61683071 69.17876611 -76 79 C-78 78 -78 78 -79.203125 75.48828125 C-80.22228428 71.02696148 -79.62394121 67.62432549 -78.75 63.1875 C-78.60304687 62.39013428 -78.45609375 61.59276855 -78.3046875 60.77124023 C-78.01306656 59.20713515 -77.71449603 57.64430604 -77.40820312 56.08300781 C-77.07223227 54.36859192 -76.75947834 52.6496427 -76.453125 50.9296875 C-75.67568264 46.86822136 -74.86399456 44.85633682 -72 42 C-71.87625 41.05125 -71.7525 40.1025 -71.625 39.125 C-70.81701481 35.08507405 -69.12352584 33.59024094 -66 31 C-65.34 31 -64.68 31 -64 31 C-63.814375 29.96875 -63.62875 28.9375 -63.4375 27.875 C-62.0510889 23.0564943 -58.90753509 20.89050541 -55 18 C-53.99646484 17.20722656 -53.99646484 17.20722656 -52.97265625 16.3984375 C-49.14352108 13.41450491 -45.39538266 11.09779627 -41 9 C-40.360625 8.46375 -39.72125 7.9275 -39.0625 7.375 C-36.19635513 5.46423675 -33.37258779 5.44543612 -30 5 C-29.67 4.34 -29.34 3.68 -29 3 C-25.98716912 2.19657843 -23.06178424 1.55862637 -20 1 C-18.39511719 0.70029297 -18.39511719 0.70029297 -16.7578125 0.39453125 C-10.75678876 -0.63797745 -6.04049598 -0.97936912 0 0 Z " fill="#3A4F74" transform="translate(228,118)"/>
<path d="M0 0 C0.02505615 0.83772949 0.0501123 1.67545898 0.07592773 2.53857422 C0.17100357 5.64352256 0.27024025 8.74830181 0.37231445 11.85302734 C0.43698251 13.85894807 0.49683106 15.86502228 0.55664062 17.87109375 C0.59853516 19.12792969 0.64042969 20.38476562 0.68359375 21.6796875 C0.72025146 22.84226074 0.75690918 24.00483398 0.79467773 25.20263672 C0.81821659 27.9535501 0.81821659 27.9535501 2 30 C1.0625 32.625 1.0625 32.625 0 35 C-2.63312492 35.07523214 -4.92160446 35.017639 -7.5 34.4375 C-10.31127902 33.94552617 -12.22853132 34.4314936 -15 35 C-18.31699452 34.60976535 -19.8267013 33.4992935 -22 31 C-19.98822819 28.98822819 -16.07522667 29.56336065 -13.34765625 29.37890625 C-10.81487227 29.20514276 -10.81487227 29.20514276 -9 27 C-7.52269078 23.15899602 -7.93254175 19.04749486 -8 15 C-9.65 14.67 -11.3 14.34 -13 14 C-13.33 12.68 -13.66 11.36 -14 10 C-11.36 9.67 -8.72 9.34 -6 9 C-6.061875 8.071875 -6.12375 7.14375 -6.1875 6.1875 C-6 3 -6 3 -4.6875 1.125 C-3 0 -3 0 0 0 Z " fill="#DC0309" transform="translate(321,327)"/>
<path d="M0 0 C0.33 0 0.66 0 1 0 C1.00586624 0.94166016 1.01173248 1.88332031 1.01777649 2.85351562 C1.0753807 11.79610746 1.1483329 20.73846487 1.23571491 29.68081665 C1.28014496 34.27645054 1.31945853 38.87200133 1.34643555 43.46777344 C1.37274518 47.91594765 1.41333467 52.36379718 1.46318626 56.81176758 C1.47967045 58.4954825 1.49129801 60.17925334 1.49761391 61.86303711 C1.54961905 74.4713219 2.0236783 87.21821594 7 99 C7.49313497 101.66572015 7.72523632 104.29815717 8 107 C8.66 107 9.32 107 10 107 C10.19335938 107.78246094 10.38671875 108.56492187 10.5859375 109.37109375 C10.97652344 110.88896484 10.97652344 110.88896484 11.375 112.4375 C11.63023437 113.44683594 11.88546875 114.45617187 12.1484375 115.49609375 C12.72573954 118.15570324 12.72573954 118.15570324 15 119 C15.40729228 121.32156597 15.74438677 123.6568787 16 126 C14.5 124.6875 14.5 124.6875 13 123 C13 122.01 13 121.02 13 120 C12.34 120 11.68 120 11 120 C7.20387329 111.50538859 4.37943003 102.98895791 2 94 C1.7834375 93.236875 1.566875 92.47375 1.34375 91.6875 C-1.60804266 80.92213854 -1.1486597 69.71468676 -1.1328125 58.65234375 C-1.13348713 56.98751308 -1.13445848 55.32268251 -1.13571167 53.65785217 C-1.13717747 50.19091848 -1.13506779 46.72401073 -1.13037109 43.25708008 C-1.12463418 38.80482169 -1.12798468 34.35262306 -1.13394356 29.90036678 C-1.13754531 26.47328739 -1.13641307 23.04622234 -1.13381577 19.61914253 C-1.13314749 17.97601883 -1.13397145 16.33289384 -1.13629532 14.68977165 C-1.13881982 12.40634534 -1.13498603 10.12301846 -1.12939453 7.83959961 C-1.12859894 6.53961533 -1.12780334 5.23963104 -1.12698364 3.9002533 C-1 1 -1 1 0 0 Z " fill="#415872" transform="translate(120,122)"/>
<path d="M0 0 C7.24539726 -0.53449652 11.72912263 0.28392452 18 4 C18 4.66 18 5.32 18 6 C18.66 6 19.32 6 20 6 C20 8.97 20 11.94 20 15 C16.7 15 13.4 15 10 15 C9.67 13.35 9.34 11.7 9 10 C10.32 10 11.64 10 13 10 C11.87890434 8.37506099 11.87890434 8.37506099 10 7 C6.13350692 6.58867095 3.22767234 6.72867502 0 9 C-0.33 9.99 -0.66 10.98 -1 12 C-0.34 12.33 0.32 12.66 1 13 C0.01 14.485 0.01 14.485 -1 16 C-1.66 16 -2.32 16 -3 16 C-3 16.99 -3 17.98 -3 19 C-5 18 -5 18 -5.625 16.4375 C-6.39800236 11.41298464 -6.93528047 6.40292071 -4 2 C-3.01 2.33 -2.02 2.66 -1 3 C-0.67 2.01 -0.34 1.02 0 0 Z " fill="#E2060A" transform="translate(335,336)"/>
<path d="M0 0 C2.2265625 1.01171875 2.2265625 1.01171875 4 2 C4.02699725 4.27076842 4.04639453 6.54162821 4.0625 8.8125 C4.07410156 10.07707031 4.08570312 11.34164063 4.09765625 12.64453125 C4 16 4 16 3 19 C3.33 19.33 3.66 19.66 4 20 C4.07226502 21.85287502 4.0838122 23.70833878 4.0625 25.5625 C4.05347656 26.57441406 4.04445313 27.58632813 4.03515625 28.62890625 C4.02355469 29.41136719 4.01195313 30.19382812 4 31 C3.34 31.33 2.68 31.66 2 32 C2 28.37 2 24.74 2 21 C-0.64 20.67 -3.28 20.34 -6 20 C-6.33 20.66 -6.66 21.32 -7 22 C-7.66 21.67 -8.32 21.34 -9 21 C-9 24.63 -9 28.26 -9 32 C-14.41538462 34.21538462 -14.41538462 34.21538462 -17.375 33.125 C-17.91125 32.75375 -18.4475 32.3825 -19 32 C-19 31.01 -19 30.02 -19 29 C-18.34 29 -17.68 29 -17 29 C-17 29.99 -17 30.98 -17 32 C-15.68 31.67 -14.36 31.34 -13 31 C-11.40977535 21.58014358 -11.40977535 21.58014358 -11 12.0625 C-11.10667839 7.9858615 -10.43445505 4.82521346 -9 1 C-5.97562661 -0.5121867 -3.33758466 -0.17263369 0 0 Z M-8 4 C-9.29920746 7.54588501 -9.29920746 7.54588501 -10 11 C-8.91447634 12.31262571 -8.91447634 12.31262571 -6.27734375 12.09765625 C-5.17519531 12.08605469 -4.07304688 12.07445312 -2.9375 12.0625 C-1.83277344 12.05347656 -0.72804688 12.04445313 0.41015625 12.03515625 C1.26480469 12.02355469 2.11945313 12.01195312 3 12 C2.67 8.7 2.34 5.4 2 2 C-3.38741973 1.65905049 -3.38741973 1.65905049 -8 4 Z " fill="#B21414" transform="translate(109,331)"/>
<path d="M0 0 C0.33 0.99 0.66 1.98 1 3 C1.66 3 2.32 3 3 3 C4.13955862 9.32589627 4.1142637 15.52278338 4.0625 21.9375 C4.05798828 23.00291016 4.05347656 24.06832031 4.04882812 25.16601562 C4.03711787 27.77740291 4.02071724 30.38867124 4 33 C6.64 33 9.28 33 12 33 C13.25664978 35.90600261 14 37.79604584 14 41 C11.11788698 41.96070434 9.30149956 42.10581883 6.3125 42.0625 C5.10013672 42.04896484 5.10013672 42.04896484 3.86328125 42.03515625 C3.24839844 42.02355469 2.63351563 42.01195312 2 42 C5.21639654 40.25434889 7.32013404 39.795563 11 40 C11 39.34 11 38.68 11 38 C7.535 38.495 7.535 38.495 4 39 C5 36 5 36 6 35 C4.68 34.67 3.36 34.34 2 34 C2 25.09 2 16.18 2 7 C0.35 7 -1.3 7 -3 7 C-4.02379878 13.13418935 -4.31607673 19.22844151 -4.5625 25.4375 C-4.60568359 26.45521484 -4.64886719 27.47292969 -4.69335938 28.52148438 C-4.79868582 31.01421028 -4.90081672 33.50702338 -5 36 C-5.33 36 -5.66 36 -6 36 C-6.02505615 35.17274414 -6.0501123 34.34548828 -6.07592773 33.49316406 C-6.19196349 29.74528808 -6.314656 25.99765875 -6.4375 22.25 C-6.47681641 20.94804687 -6.51613281 19.64609375 -6.55664062 18.3046875 C-6.59853516 17.05429687 -6.64042969 15.80390625 -6.68359375 14.515625 C-6.72025146 13.36352539 -6.75690918 12.21142578 -6.79467773 11.02441406 C-6.96452174 8.52259776 -7.27968475 6.38908832 -8 4 C-5.37801226 1.84622436 -3.35595828 0.59927826 0 0 Z " fill="#BA181F" transform="translate(177,322)"/>
<path d="M0 0 C1.65 0.66 3.3 1.32 5 2 C5 2.33 5 2.66 5 3 C-0.94 3.495 -0.94 3.495 -7 4 C-7.68689325 7.94963617 -8.03577656 11.61531618 -7.9375 15.625 C-7.85093132 21.85794467 -8.92516528 27.87728078 -10 34 C-12.475 34.495 -12.475 34.495 -15 35 C-15 34.01 -15 33.02 -15 32 C-15.66 32 -16.32 32 -17 32 C-16.58448586 28.03903239 -16.1388974 24.08202598 -15.6875 20.125 C-15.56955078 18.99707031 -15.45160156 17.86914062 -15.33007812 16.70703125 C-15.20439453 15.63066406 -15.07871094 14.55429687 -14.94921875 13.4453125 C-14.78425903 11.95281982 -14.78425903 11.95281982 -14.6159668 10.43017578 C-14 8 -14 8 -11 6 C-10.5875 5.13375 -10.175 4.2675 -9.75 3.375 C-8.88375 2.199375 -8.88375 2.199375 -8 1 C-4.375 0.75 -4.375 0.75 -1 1 C-0.67 0.67 -0.34 0.34 0 0 Z " fill="#E5040B" transform="translate(107,328)"/>
<path d="M0 0 C1.9375 0.625 1.9375 0.625 3.9375 2.625 C4.16455078 5.60595703 4.16455078 5.60595703 4.1328125 9.3828125 C4.1299826 10.04586395 4.12715271 10.70891541 4.12423706 11.39205933 C4.11303435 13.51155583 4.08793051 15.63063104 4.0625 17.75 C4.05247028 19.18619182 4.04334441 20.62239025 4.03515625 22.05859375 C4.013095 25.58086628 3.97856494 29.10289203 3.9375 32.625 C3.2775 32.295 2.6175 31.965 1.9375 31.625 C1.9375 22.385 1.9375 13.145 1.9375 3.625 C-3.29256523 5.96535295 -3.29256523 5.96535295 -3.875 9.8125 C-3.9678125 11.2046875 -3.9678125 11.2046875 -4.0625 12.625 C-6.3725 13.285 -8.6825 13.945 -11.0625 14.625 C-11.0625 15.615 -11.0625 16.605 -11.0625 17.625 C-9.8559375 17.5940625 -9.8559375 17.5940625 -8.625 17.5625 C-6.0625 17.625 -6.0625 17.625 -5.0625 18.625 C-4.92134839 21.29558851 -5.02002893 23.94932238 -5.0625 26.625 C-5.3925 26.625 -5.7225 26.625 -6.0625 26.625 C-6.0625 24.315 -6.0625 22.005 -6.0625 19.625 C-10.0225 19.955 -13.9825 20.285 -18.0625 20.625 C-18.0625 19.965 -18.0625 19.305 -18.0625 18.625 C-17.0725 18.625 -16.0825 18.625 -15.0625 18.625 C-15.3925 16.975 -15.7225 15.325 -16.0625 13.625 C-19.68189504 15.35243854 -22.93817603 17.10150757 -26.0625 19.625 C-24.77239008 16.74706249 -23.48888194 14.66316083 -21.0625 12.625 C-17.77730525 11.52993508 -15.32586585 11.52539392 -11.875 11.5625 C-10.24498047 11.57603516 -10.24498047 11.57603516 -8.58203125 11.58984375 C-7.75058594 11.60144531 -6.91914063 11.61304688 -6.0625 11.625 C-6.7225 8.325 -7.3825 5.025 -8.0625 1.625 C-4.82956744 -0.53028837 -3.71388295 -0.67525145 0 0 Z " fill="#B71B27" transform="translate(319.0625,323.375)"/>
<path d="M0 0 C0.55945313 0.18175781 1.11890625 0.36351562 1.6953125 0.55078125 C15.19910254 4.78428456 27.33941577 6.42247047 41.37890625 6.22265625 C43.00600714 6.21194771 44.63311972 6.20290111 46.26023865 6.19541931 C50.49815001 6.17287416 54.73571754 6.1339016 58.97344971 6.0894165 C65.78530628 6.0185985 72.59716154 5.96387838 79.40928459 5.92706108 C81.77642126 5.91043706 84.14315483 5.88090167 86.51014709 5.85035706 C87.96061845 5.83989716 89.41109352 5.82993665 90.86157227 5.82055664 C92.12284439 5.8070668 93.38411652 5.79357697 94.68360901 5.77967834 C97.90799676 5.99388784 100.10830393 6.60784989 103 8 C102.34 8.33 101.68 8.66 101 9 C100.89558594 9.93070312 100.79117188 10.86140625 100.68359375 11.8203125 C100 15 100 15 97.78515625 17.1171875 C96.88667969 17.69726562 95.98820312 18.27734375 95.0625 18.875 C94.16660156 19.47054688 93.27070313 20.06609375 92.34765625 20.6796875 C90 22 90 22 88 22 C88.495 20.515 88.495 20.515 89 19 C91.0625 18.3125 91.0625 18.3125 93 18 C93 17.34 93 16.68 93 16 C94.65 15.34 96.3 14.68 98 14 C98 13.34 98 12.68 98 12 C98.66 12 99.32 12 100 12 C100 11.34 100 10.68 100 10 C82.99674823 8.94474184 65.98821546 8.69761912 48.95874023 8.46777344 C45.23026803 8.41667025 41.50185662 8.3614579 37.7734375 8.30664062 C30.51567709 8.200514 23.2578646 8.09877436 16 8 C16 7.34 16 6.68 16 6 C15.14728516 6.06960938 15.14728516 6.06960938 14.27734375 6.140625 C8.2258455 6.42349971 5.00240438 5.40589234 0 2 C0 1.34 0 0.68 0 0 Z " fill="#41577B" transform="translate(192,258)"/>
<path d="M0 0 C0 0.66 0 1.32 0 2 C0.66 2 1.32 2 2 2 C2.66 5.3 3.32 8.6 4 12 C3.34 12 2.68 12 2 12 C1.95745644 13.99954746 1.95919217 16.00041636 2 18 C2.33 18.33 2.66 18.66 3 19 C3.23192865 20.51469448 3.41215238 22.03754562 3.5625 23.5625 C3.68818359 24.80193359 3.68818359 24.80193359 3.81640625 26.06640625 C3.87699219 26.70449219 3.93757813 27.34257812 4 28 C5.65 28.33 7.3 28.66 9 29 C9.33 28.01 9.66 27.02 10 26 C9.67 27.65 9.34 29.3 9 31 C5.625 31.1875 5.625 31.1875 2 31 C0 28 0 28 0.375 24.8125 C0.684375 23.4203125 0.684375 23.4203125 1 22 C-0.7634375 22.061875 -0.7634375 22.061875 -2.5625 22.125 C-6.72409674 22.13983635 -10.06487667 21.31170778 -14 20 C-11.47524538 18.73762269 -9.68799534 18.90143596 -6.875 18.9375 C-5.96492187 18.94652344 -5.05484375 18.95554687 -4.1171875 18.96484375 C-3.41851562 18.97644531 -2.71984375 18.98804688 -2 19 C-2 18.01 -2 17.02 -2 16 C-3.299375 16.12375 -3.299375 16.12375 -4.625 16.25 C-8.9578476 15.92904833 -10.85411416 14.99608175 -14 12 C-14.84607668 8.37819807 -14.3347793 5.15651031 -13.3125 1.625 C-9.42744208 -3.18507171 -5.26590609 -1.85855509 0 0 Z M-12 2 C-13.1716367 5.36760187 -13.1716367 5.36760187 -13 9 C-11.77564845 11.64237846 -11.77564845 11.64237846 -9 13 C-5.96902943 13.31767905 -3.03480437 13.23344649 0 13 C0.81055074 9.24199202 1.28666538 6.7756828 -0.0625 3.125 C-1.88966004 0.7659618 -1.88966004 0.7659618 -4.9375 0.0625 C-8.87347339 -0.07442535 -8.87347339 -0.07442535 -12 2 Z " fill="#AF1513" transform="translate(228,342)"/>
<path d="M0 0 C0.33 0.66 0.66 1.32 1 2 C1.99 1.67 2.98 1.34 4 1 C5.32 1.66 6.64 2.32 8 3 C8 15.87 8 28.74 8 42 C0 42 0 42 -2.5 40 C-2.995 39.34 -3.49 38.68 -4 38 C-3.34 37.01 -2.68 36.02 -2 35 C-1.75597194 32.22126717 -1.75597194 32.22126717 -1.875 29.08203125 C-1.89046875 27.90962891 -1.9059375 26.73722656 -1.921875 25.52929688 C-1.97354798 23.07095488 -2.02562474 20.61262134 -2.078125 18.15429688 C-2.16271178 11.70807931 -1.96339608 6.1586213 0 0 Z M0 11 C0 11.66 0 12.32 0 13 C1.98 13 3.96 13 6 13 C6 12.34 6 11.68 6 11 C4.02 11 2.04 11 0 11 Z M0 14 C-0.02886537 18.31248609 -0.04675255 22.62494762 -0.0625 26.9375 C-0.07087891 28.16919922 -0.07925781 29.40089844 -0.08789062 30.66992188 C-0.09111328 31.83974609 -0.09433594 33.00957031 -0.09765625 34.21484375 C-0.10289307 35.29886475 -0.10812988 36.38288574 -0.11352539 37.49975586 C-0.28426897 39.94049948 -0.28426897 39.94049948 1 41 C2.98 41 4.96 41 7 41 C7 32.09 7 23.18 7 14 C4.69 14 2.38 14 0 14 Z " fill="#981E20" transform="translate(195,322)"/>
<path d="M0 0 C3.6079771 3.81896992 4.40246261 8.42447821 5.625 13.375 C5.8415625 14.21289062 6.058125 15.05078125 6.28125 15.9140625 C8.30112829 23.84395507 9.15972762 31.13414443 9.125 39.3125 C9.12886719 40.21162109 9.13273437 41.11074219 9.13671875 42.03710938 C9.11541425 56.7691715 9.11541425 56.7691715 7 61 C6.01 60.67 5.02 60.34 4 60 C4.16081055 59.3184082 4.32162109 58.63681641 4.48730469 57.93457031 C5.41388362 52.63100901 5.22530576 47.24312907 5.24023438 41.87255859 C5.24990752 39.77010024 5.28095426 37.6686344 5.3125 35.56640625 C5.37746308 27.33660983 4.95992311 20.21155229 0.83691406 12.95214844 C0 11 0 11 1 8 C0.90731495 5.93381251 0.90731495 5.93381251 0.5625 3.8125 C0.376875 2.554375 0.19125 1.29625 0 0 Z " fill="#36507D" transform="translate(320,152)"/>
<path d="M0 0 C0.33 1.32 0.66 2.64 1 4 C1.66 4 2.32 4 3 4 C3 3.34 3 2.68 3 2 C3.99 1.67 4.98 1.34 6 1 C6.01981934 1.83772949 6.03963867 2.67545898 6.06005859 3.53857422 C6.13810612 6.64365834 6.22479635 9.74834539 6.31738281 12.85302734 C6.37454036 14.85886971 6.42168596 16.86498918 6.46875 18.87109375 C6.50742188 20.12792969 6.54609375 21.38476562 6.5859375 22.6796875 C6.6173584 23.84226074 6.6487793 25.00483398 6.68115234 26.20263672 C6.72157869 29.13656482 6.72157869 29.13656482 9 31 C8.505 32.485 8.505 32.485 8 34 C6.33388095 34.042721 4.66617115 34.04063832 3 34 C1.43694509 32.43694509 1.69360032 30.72321782 1.5 28.5625 C1.20853056 25.15502495 1.20853056 25.15502495 0 22 C0.27942455 20.32345271 0.60828247 18.65391846 1 17 C1.66 17 2.32 17 3 17 C2.69964844 15.85660156 2.39929688 14.71320313 2.08984375 13.53515625 C1.70542201 12.04435 1.32132409 10.55346023 0.9375 9.0625 C0.73833984 8.30775391 0.53917969 7.55300781 0.33398438 6.77539062 C-0.15531385 4.8611186 -0.58271593 2.93124937 -1 1 C-0.67 0.67 -0.34 0.34 0 0 Z " fill="#E1030A" transform="translate(229,337)"/>
<path d="M0 0 C2.97 0.495 2.97 0.495 6 1 C6 9.25 6 17.5 6 26 C4.02 26 2.04 26 0 26 C0 17.42 0 8.84 0 0 Z " fill="#D7080B" transform="translate(279,336)"/>
<path d="M0 0 C1.05369024 4.87331737 1.01318743 9.46336695 0.83984375 14.4140625 C1.00793512 17.12812322 1.61608013 18.68803974 3 21 C0.525 20.01 0.525 20.01 -2 19 C-2.06058594 18.27554687 -2.12117187 17.55109375 -2.18359375 16.8046875 C-2.61483433 11.82883467 -3.07047641 6.91319609 -4 2 C-4.99 2 -5.98 2 -7 2 C-6.85834107 4.39614575 -6.71181159 6.79182897 -6.5625 9.1875 C-6.52318359 9.86103516 -6.48386719 10.53457031 -6.44335938 11.22851562 C-6.23234471 18.35470094 -6.23234471 18.35470094 -2.9375 24.3125 C-2.298125 24.869375 -1.65875 25.42625 -1 26 C-1.33 26.99 -1.66 27.98 -2 29 C-2.33 28.34 -2.66 27.68 -3 27 C-3.99 26.67 -4.98 26.34 -6 26 C-9.64932484 20.74293066 -9.35810233 15.75793493 -9.1875 9.625 C-9.17396484 8.69816406 -9.16042969 7.77132813 -9.14648438 6.81640625 C-9.11133881 4.54366002 -9.06214132 2.27214153 -9 0 C-5.93109813 -1.53445094 -3.29905734 -0.54984289 0 0 Z " fill="#B21A21" transform="translate(252,335)"/>
<path d="M0 0 C0.33 0 0.66 0 1 0 C1.10957031 1.16015625 1.21914062 2.3203125 1.33203125 3.515625 C2.23359473 12.57303485 3.43509058 21.23541649 6 30 C6.21011719 30.73089844 6.42023438 31.46179688 6.63671875 32.21484375 C6.81847656 32.84519531 7.00023438 33.47554687 7.1875 34.125 C8 37 8 37 8 39 C8.66 39 9.32 39 10 39 C10.19335938 39.78246094 10.38671875 40.56492188 10.5859375 41.37109375 C10.84632813 42.38300781 11.10671875 43.39492187 11.375 44.4375 C11.63023437 45.44683594 11.88546875 46.45617187 12.1484375 47.49609375 C12.72573954 50.15570324 12.72573954 50.15570324 15 51 C15.40729228 53.32156597 15.74438677 55.6568787 16 58 C14.5 56.6875 14.5 56.6875 13 55 C13 54.01 13 53.02 13 52 C12.34 52 11.68 52 11 52 C7.20631278 43.51084745 4.35065063 34.99200852 2 26 C1.82412354 25.37730225 1.64824707 24.75460449 1.46704102 24.11303711 C0.10182156 19.0919324 -0.43867457 14.25164131 -0.6875 9.0625 C-0.73455078 8.29615234 -0.78160156 7.52980469 -0.83007812 6.74023438 C-0.93335462 4.82877275 -0.97250533 2.91405214 -1 1 C-0.67 0.67 -0.34 0.34 0 0 Z " fill="#284162" transform="translate(120,190)"/>
<path d="M0 0 C0.51006088 0.21062576 1.02012177 0.42125153 1.54563904 0.63825989 C8.09921792 3.10759606 14.07771065 3.4701351 21.03515625 3.51171875 C22.15442001 3.52966995 23.27368378 3.54762115 24.42686462 3.56611633 C27.97203906 3.61993176 31.51708109 3.65402311 35.0625 3.6875 C37.47853394 3.7206984 39.89455046 3.75519037 42.31054688 3.79101562 C48.20691243 3.87564158 54.10329574 3.9441123 60 4 C59.67 4.66 59.34 5.32 59 6 C51.88337099 6.07632377 44.76684831 6.12871469 37.64990234 6.16479492 C35.2309169 6.17984279 32.81195857 6.20028588 30.39306641 6.22631836 C26.90780937 6.262877 23.4229144 6.2797669 19.9375 6.29296875 C18.86322754 6.30845261 17.78895508 6.32393646 16.68212891 6.33988953 C10.39198783 6.34128626 5.7391375 5.61335725 0 3 C0 2.01 0 1.02 0 0 Z " fill="#385483" transform="translate(205,230)"/>
<path d="M0 0 C1.65 0 3.3 0 5 0 C5.02894547 3.45831586 5.04678 6.91660072 5.0625 10.375 C5.07087891 11.35984375 5.07925781 12.3446875 5.08789062 13.359375 C5.09111328 14.30039062 5.09433594 15.24140625 5.09765625 16.2109375 C5.10289307 17.08024902 5.10812988 17.94956055 5.11352539 18.84521484 C5 21 5 21 4 23 C1.97954558 22.39816251 -0.02111039 21.72693904 -2 21 C-2.33 20.34 -2.66 19.68 -3 19 C-2.34 19 -1.68 19 -1 19 C-0.67 12.73 -0.34 6.46 0 0 Z " fill="#E60309" transform="translate(265,337)"/>
<path d="M0 0 C0.33 1.65 0.66 3.3 1 5 C0.01 5 -0.98 5 -2 5 C-2.33 5.99 -2.66 6.98 -3 8 C-3.66 8 -4.32 8 -5 8 C-5.33 11.63 -5.66 15.26 -6 19 C-7.65 19 -9.3 19 -11 19 C-12.57170996 15.85658007 -12.23175783 12.44228549 -12 9 C-10.65059235 4.95177706 -8.35249252 3.54789431 -5 1 C-2 0 -2 0 0 0 Z " fill="#D71016" transform="translate(303,337)"/>
<path d="M0 0 C0.99 0.33 1.98 0.66 3 1 C3 2.65 3 4.3 3 6 C2.34 6 1.68 6 1 6 C1 7.65 1 9.3 1 11 C0.34 11 -0.32 11 -1 11 C-0.67 11.99 -0.34 12.98 0 14 C-0.66 14 -1.32 14 -2 14 C-4.3569916 23.58509917 -4.61683071 33.17876611 -5 43 C-7 42 -7 42 -8.203125 39.48828125 C-9.22228428 35.02696148 -8.62394121 31.62432549 -7.75 27.1875 C-7.60304687 26.39013428 -7.45609375 25.59276855 -7.3046875 24.77124023 C-7.01306656 23.20713515 -6.71449603 21.64430604 -6.40820312 20.08300781 C-6.07223227 18.36859192 -5.75947834 16.6496427 -5.453125 14.9296875 C-4.67518922 10.86564369 -3.86473098 8.85717232 -1 6 C-0.2730774 2.89160979 -0.2730774 2.89160979 0 0 Z " fill="#335283" transform="translate(157,154)"/>
<path d="M0 0 C0.66 0.33 1.32 0.66 2 1 C2.59765625 3.109375 2.59765625 3.109375 3.0625 5.75 C3.21847656 6.61109375 3.37445313 7.4721875 3.53515625 8.359375 C3.83354466 10.05442178 4.13054134 11.74971448 4.42578125 13.4453125 C6.4303941 22.36379416 10.42634253 30.25511927 15.546875 37.7578125 C17 40 17 40 18 43 C17.01 43 16.02 43 15 43 C14.34 41.35 13.68 39.7 13 38 C12.34 38 11.68 38 11 38 C8.74680961 36.2875753 8.05288407 35.18068724 7.25 32.4375 C7 30 7 30 8 28 C7.34 28 6.68 28 6 28 C5.34 25.69 4.68 23.38 4 21 C3.34 21 2.68 21 2 21 C-0.11412577 14.79856441 -0.87079559 8.54966951 -1 2 C-0.67 1.34 -0.34 0.68 0 0 Z " fill="#2F4C7B" transform="translate(150,197)"/>
<path d="M0 0 C1.32 0 2.64 0 4 0 C4.0270491 3.06255961 4.04686298 6.1248786 4.0625 9.1875 C4.07087891 10.05181641 4.07925781 10.91613281 4.08789062 11.80664062 C4.10396812 16.00286769 4.07559038 19.90936886 3 24 C1.68 24 0.36 24 -1 24 C-1.02887236 20.18751574 -1.04675492 16.3750593 -1.0625 12.5625 C-1.07087891 11.47388672 -1.07925781 10.38527344 -1.08789062 9.26367188 C-1.09111328 8.22919922 -1.09433594 7.19472656 -1.09765625 6.12890625 C-1.10289307 5.17056885 -1.10812988 4.21223145 -1.11352539 3.22485352 C-1 1 -1 1 0 0 Z " fill="#EA020B" transform="translate(131,337)"/>
<path d="M0 0 C1.66577625 3.33155251 1.12007856 7.06536059 1.09765625 10.7265625 C1.0962413 11.58937836 1.09482635 12.45219421 1.09336853 13.34115601 C1.08776188 16.1024723 1.07520827 18.86370812 1.0625 21.625 C1.05748586 23.4947905 1.0529228 25.36458226 1.04882812 27.234375 C1.03779029 31.82294777 1.0205212 36.41146023 1 41 C-1.64 41 -4.28 41 -7 41 C-7 40.67 -7 40.34 -7 40 C-5.35 40 -3.7 40 -2 40 C-1.67 27.79 -1.34 15.58 -1 3 C-4.63 3 -8.26 3 -12 3 C-12 2.34 -12 1.68 -12 1 C-7.95858806 0.36605303 -4.0934693 -0.12404452 0 0 Z " fill="#A80E13" transform="translate(120,323)"/>
<path d="M0 0 C0.33 0 0.66 0 1 0 C2.26851884 5.85934894 2.14741461 11.66271493 2.125 17.625 C2.12886719 18.66140625 2.13273437 19.6978125 2.13671875 20.765625 C2.13542969 21.76335937 2.13414063 22.76109375 2.1328125 23.7890625 C2.13168457 24.69350098 2.13055664 25.59793945 2.12939453 26.52978516 C2.00895489 28.82904603 1.64684856 30.79737467 1 33 C0.01 33 -0.98 33 -2 33 C-2.74568948 25.01538646 -3.14872652 17.19798684 -2.6875 9.1875 C-2.65277588 8.50042969 -2.61805176 7.81335938 -2.58227539 7.10546875 C-2.24874266 2.24874266 -2.24874266 2.24874266 0 0 Z " fill="#E0020E" transform="translate(116,327)"/>
<path d="M0 0 C0.99 0.33 1.98 0.66 3 1 C3.66015625 2.85546875 3.66015625 2.85546875 4.0625 5.1875 C4.58478909 7.94692735 5.13795377 10.39763145 6.0625 13.0625 C8.49713215 20.69101406 8.13351912 28.67327007 8.09765625 36.59375 C8.0962413 37.78101685 8.09482635 38.96828369 8.09336853 40.19152832 C8.08779811 43.96104516 8.07525105 47.73050129 8.0625 51.5 C8.05748118 54.06510331 8.05291894 56.63020755 8.04882812 59.1953125 C8.03783836 65.46356217 8.02112981 71.73177675 8 78 C7.67 78 7.34 78 7 78 C7 61.5 7 45 7 28 C6.34 28 5.68 28 5 28 C4.96132813 26.80117187 4.96132813 26.80117187 4.921875 25.578125 C4.54896238 18.35718057 3.38986355 12.23074095 0.83984375 5.4609375 C0 3 0 3 0 0 Z " fill="#335177" transform="translate(291,164)"/>
<path d="M0 0 C5.80420319 1.3301299 10.09205171 3.67113073 15 7 C15.99 7.66 16.98 8.32 18 9 C18 9.66 18 10.32 18 11 C18.57363281 11.1959375 19.14726562 11.391875 19.73828125 11.59375 C22.9012975 13.56039223 24.36809409 16.352735 26.1875 19.5 C26.72020508 20.39138672 26.72020508 20.39138672 27.26367188 21.30078125 C30.29368903 26.39488979 31.11082204 29.01561001 31 35 C29 33 29 33 28.5 29.9375 C28.335 28.968125 28.17 27.99875 28 27 C27.34 26.67 26.68 26.34 26 26 C26 24.68 26 23.36 26 22 C25.34 22 24.68 22 24 22 C23.401875 21.071875 22.80375 20.14375 22.1875 19.1875 C19.96174405 15.94425561 18.30677024 14.92894931 15 13 C15 12.01 15 11.02 15 10 C14.01 9.67 13.02 9.34 12 9 C11.67 8.34 11.34 7.68 11 7 C9.35636866 6.27840576 7.68949614 5.60648579 6 5 C6 4.34 6 3.68 6 3 C4.35 3 2.7 3 1 3 C0.67 2.01 0.34 1.02 0 0 Z " fill="#334E74" transform="translate(236,149)"/>
<path d="M0 0 C3.37462715 0.54723683 5.08235 1.0549 8 3 C8 3.66 8 4.32 8 5 C8.928125 5.4640625 8.928125 5.4640625 9.875 5.9375 C11.25 6.625 12.625 7.3125 14 8 C14 8.66 14 9.32 14 10 C14.556875 10.226875 15.11375 10.45375 15.6875 10.6875 C20.37859758 13.35001484 23.55697276 17.24252589 26 22 C26 22.66 26 23.32 26 24 C26.804375 24.268125 27.60875 24.53625 28.4375 24.8125 C29.283125 25.204375 30.12875 25.59625 31 26 C32.06546953 29.1964086 32.07427838 31.65747276 32 35 C31.01 35.495 31.01 35.495 30 36 C29.16180842 34.37750059 28.3295884 32.75191503 27.5 31.125 C27.0359375 30.22007812 26.571875 29.31515625 26.09375 28.3828125 C25 26 25 26 25 24 C24.34 23.67 23.68 23.34 23 23 C22.15766927 21.87591405 21.35082222 20.72509983 20.5625 19.5625 C15.73305897 12.97689859 9.49904469 7.22307929 2.65625 2.765625 C1.7796875 2.18296875 0.903125 1.6003125 0 1 C0 0.67 0 0.34 0 0 Z " fill="#314F72" transform="translate(260,128)"/>
<path d="M0 0 C2.43088799 6.68494198 -1.91650478 14.55559291 -4.6171875 20.6484375 C-8.91583013 29.63243088 -13.58417328 38.23851093 -21 45 C-21 42 -21 42 -20 39 C-19.01 39 -18.02 39 -17 39 C-16.72929687 38.28070313 -16.45859375 37.56140625 -16.1796875 36.8203125 C-15.00924514 34.02210263 -13.6381375 31.50143037 -12.125 28.875 C-9.1066413 23.43751558 -6.93949566 17.89834858 -5 12 C-4.34 12 -3.68 12 -3 12 C-2.67 10.68 -2.34 9.36 -2 8 C-2.66 7.67 -3.32 7.34 -4 7 C-2.68 4.69 -1.36 2.38 0 0 Z " fill="#324971" transform="translate(325,214)"/>
<path d="M0 0 C0.33 0.66 0.66 1.32 1 2 C1.66 2 2.32 2 3 2 C3 11.24 3 20.48 3 30 C-0.10551666 30 -1.35261084 29.4606285 -4 28 C-2.68 27.67 -1.36 27.34 0 27 C0.33 19.08 0.66 11.16 1 3 C-0.32 3.33 -1.64 3.66 -3 4 C-3.33 11.26 -3.66 18.52 -4 26 C-4.33 26 -4.66 26 -5 26 C-5 18.08 -5 10.16 -5 2 C-3.35 2 -1.7 2 0 2 C0 1.34 0 0.68 0 0 Z " fill="#BB1518" transform="translate(134,334)"/>
<path d="M0 0 C1.98 0.99 1.98 0.99 4 2 C4 2.66 4 3.32 4 4 C4.66 4 5.32 4 6 4 C5.34 10.93 4.68 17.86 4 25 C2.68 24.67 1.36 24.34 0 24 C0 16.08 0 8.16 0 0 Z " fill="#E40409" transform="translate(145,336)"/>
<path d="M0 0 C0.66 0.99 1.32 1.98 2 3 C1.33355469 2.98839844 0.66710937 2.97679687 -0.01953125 2.96484375 C-3.01452868 2.9355221 -6.00515399 2.95892356 -9 3 C-9.91007812 3.00386719 -10.82015625 3.00773438 -11.7578125 3.01171875 C-20.18293059 3.36788263 -27.54697277 6.54003725 -34.20703125 11.71484375 C-36 13 -36 13 -38.25 12.6875 C-38.8275 12.460625 -39.405 12.23375 -40 12 C-39.34 12 -38.68 12 -38 12 C-38 11.34 -38 10.68 -38 10 C-26.59961037 1.7431733 -14.00414997 -1.80584488 0 0 Z " fill="#30486A" transform="translate(233,147)"/>
<path d="M0 0 C2.24707241 0.2198223 4.49771238 0.40483987 6.75 0.5625 C7.92046875 0.64628906 9.0909375 0.73007812 10.296875 0.81640625 C11.18890625 0.87699219 12.0809375 0.93757813 13 1 C13.33 1.99 13.66 2.98 14 4 C12.68 4 11.36 4 10 4 C10 4.66 10 5.32 10 6 C5.57795727 7.47401424 1.64909718 7.39434933 -2.875 6.3125 C-5 5 -5 5 -5.8125 2.375 C-5.874375 1.59125 -5.93625 0.8075 -6 0 C-3.4225048 -1.2887476 -2.75433225 -0.71668849 0 0 Z " fill="#EB080C" transform="translate(338,356)"/>
<path d="M0 0 C-0.0934535 4.3786383 -0.19952754 8.75673196 -0.31738281 13.13476562 C-0.35569998 14.62458889 -0.39054808 16.11450554 -0.421875 17.60449219 C-0.46746729 19.74448048 -0.52546874 21.88382436 -0.5859375 24.0234375 C-0.6173584 25.31169434 -0.6487793 26.59995117 -0.68115234 27.92724609 C-1 31 -1 31 -3 33 C-3.33 23.43 -3.66 13.86 -4 4 C-4.66 4 -5.32 4 -6 4 C-6 4.66 -6 5.32 -6 6 C-6.66 6 -7.32 6 -8 6 C-10 3 -10 3 -10 0 C-6.26432828 -0.76411467 -3.65188082 -1.07174763 0 0 Z " fill="#BD1616" transform="translate(238,335)"/>
<path d="M0 0 C0.66 0 1.32 0 2 0 C2 0.66 2 1.32 2 2 C3.32 1.67 4.64 1.34 6 1 C6.25394531 1.68707031 6.50789062 2.37414062 6.76953125 3.08203125 C7.11371094 3.98308594 7.45789063 4.88414062 7.8125 5.8125 C8.14894531 6.70582031 8.48539063 7.59914062 8.83203125 8.51953125 C9.97141874 10.93930066 11.09692319 12.18417026 13 14 C13 14.66 13 15.32 13 16 C13.58265625 16.268125 14.1653125 16.53625 14.765625 16.8125 C17.02786601 18.01480991 18.80576318 19.33825913 20.75 21 C21.67039063 21.7734375 21.67039063 21.7734375 22.609375 22.5625 C24 24 24 24 24 26 C24.763125 26.28875 25.52625 26.5775 26.3125 26.875 C29 28 29 28 32 30 C32 30.66 32 31.32 32 32 C27.50985376 30.50328459 23.52151236 28.16631659 20 25 C20 24.34 20 23.68 20 23 C19.01 23 18.02 23 17 23 C14.984375 20.91015625 14.984375 20.91015625 12.75 18.0625 C11.96109375 17.06347656 11.1721875 16.06445312 10.359375 15.03515625 C9.58078125 14.03355469 8.8021875 13.03195312 8 12 C7.30390625 11.13246094 6.6078125 10.26492188 5.890625 9.37109375 C1.13609467 3.40828402 1.13609467 3.40828402 0 0 Z " fill="#314263" transform="translate(136,248)"/>
<path d="M0 0 C0 0.66 0 1.32 0 2 C0.66 2 1.32 2 2 2 C5.24859422 6.15820061 5.6643702 9.8816456 6 15 C5.67 15.66 5.34 16.32 5 17 C3.35 17 1.7 17 0 17 C-0.33 16.01 -0.66 15.02 -1 14 C-0.01 14 0.98 14 2 14 C2.33 11.36 2.66 8.72 3 6 C2.34 6 1.68 6 1 6 C1 5.34 1 4.68 1 4 C-0.7015625 3.5359375 -0.7015625 3.5359375 -2.4375 3.0625 C-6 2 -6 2 -7 1 C-8.68608966 0.92794489 -10.37500659 0.91613932 -12.0625 0.9375 C-12.98160156 0.94652344 -13.90070313 0.95554687 -14.84765625 0.96484375 C-15.55792969 0.97644531 -16.26820313 0.98804688 -17 1 C-17.33 1.66 -17.66 2.32 -18 3 C-18.99 3 -19.98 3 -21 3 C-20 0 -20 0 -18.25 -1.01953125 C-11.63808712 -3.34977138 -6.32702515 -3.16351257 0 0 Z " fill="#B7121A" transform="translate(352,336)"/>
<path d="M0 0 C1.32 0.33 2.64 0.66 4 1 C4 8.59 4 16.18 4 24 C3.01 24 2.02 24 1 24 C-0.25248502 21.49502996 -0.11374406 19.79146726 -0.09765625 16.9921875 C-0.09443359 16.00605469 -0.09121094 15.01992188 -0.08789062 14.00390625 C-0.07951172 12.97136719 -0.07113281 11.93882812 -0.0625 10.875 C-0.05798828 9.83472656 -0.05347656 8.79445313 -0.04882812 7.72265625 C-0.03701952 5.14838038 -0.02055075 2.57421854 0 0 Z " fill="#E00107" transform="translate(173,328)"/>
<path d="M0 0 C0.04241723 2.33294775 0.04092937 4.66702567 0 7 C-0.33 7.33 -0.66 7.66 -1 8 C-1.10338513 9.44136302 -1.13850204 10.88771346 -1.14526367 12.33276367 C-1.15164352 13.25429733 -1.15802338 14.17583099 -1.16459656 15.12528992 C-1.16570938 16.12937393 -1.1668222 17.13345795 -1.16796875 18.16796875 C-1.17129715 19.19553787 -1.17462555 20.22310699 -1.17805481 21.28181458 C-1.18313042 23.46334382 -1.18546294 25.64488087 -1.18530273 27.82641602 C-1.18747934 31.1558936 -1.20560105 34.48503468 -1.22460938 37.81445312 C-1.22754518 39.93229053 -1.22952872 42.05012952 -1.23046875 44.16796875 C-1.23765427 45.16193161 -1.24483978 46.15589447 -1.25224304 47.17997742 C-1.23579484 52.19091799 -0.99163339 56.30582321 1 61 C-1.475 61.495 -1.475 61.495 -4 62 C-4.0694906 54.35923782 -4.1228064 46.71850838 -4.15543652 39.07750225 C-4.17109693 35.52950064 -4.19234151 31.98171513 -4.22631836 28.43383789 C-4.26513007 24.35561033 -4.27970602 20.27760999 -4.29296875 16.19921875 C-4.30845261 14.92414963 -4.32393646 13.64908051 -4.33988953 12.33537292 C-4.34011612 11.15437515 -4.34034271 9.97337738 -4.34057617 8.7565918 C-4.34723801 7.71512497 -4.35389984 6.67365814 -4.36076355 5.60063171 C-4 3 -4 3 -2.54121399 1.14021301 C-1 0 -1 0 0 0 Z " fill="#34568B" transform="translate(302,184)"/>
<path d="M0 0 C6.93 0.495 6.93 0.495 14 1 C9.32958611 4.50281042 7.58600962 4.5344992 2 5 C2 9.29 2 13.58 2 18 C-4 20 -4 20 -6.375 19.125 C-6.91125 18.75375 -7.4475 18.3825 -8 18 C-8 17.01 -8 16.02 -8 15 C-7.34 15 -6.68 15 -6 15 C-6 15.99 -6 16.98 -6 18 C-4.68 17.67 -3.36 17.34 -2 17 C-1.34 11.39 -0.68 5.78 0 0 Z " fill="#C6090B" transform="translate(98,345)"/>
<path d="M0 0 C0.99 0.33 1.98 0.66 3 1 C3.73046875 3.06640625 3.73046875 3.06640625 4.1875 5.5625 C4.34605469 6.38878906 4.50460938 7.21507812 4.66796875 8.06640625 C4.77753906 8.70449219 4.88710937 9.34257812 5 10 C4.34 10 3.68 10 3 10 C3 9.34 3 8.68 3 8 C-1.3164922 7.23826608 -4.74433453 6.83936396 -9 8 C-8.67 7.01 -8.34 6.02 -8 5 C-4.535 4.505 -4.535 4.505 -1 4 C-1 3.34 -1 2.68 -1 2 C-6.74916708 2.505694 -6.74916708 2.505694 -11 6 C-13.6875 7.1875 -13.6875 7.1875 -16 8 C-12.55882694 -0.02940381 -8.22143556 -0.83724135 0 0 Z " fill="#D4070B" transform="translate(225,334)"/>
<path d="M0 0 C0.33 0.66 0.66 1.32 1 2 C7.77903022 2.13240648 7.77903022 2.13240648 14.5 1.375 C15.325 1.25125 16.15 1.1275 17 1 C19 3 19 3 19.125 5.375 C17.61538817 8.8974276 15.83318223 9.80514612 12.40234375 11.34375 C8.236239 12.48180788 4.15110333 12.09564437 0 11 C-0.66 10.34 -1.32 9.68 -2 9 C2.62 9 7.24 9 12 9 C12 8.34 12 7.68 12 7 C13.32 7 14.64 7 16 7 C15.67 6.34 15.34 5.68 15 5 C12.28553021 4.68758545 9.66090639 4.48663408 6.9375 4.375 C6.17888672 4.33632813 5.42027344 4.29765625 4.63867188 4.2578125 C2.75952805 4.16326438 0.87979664 4.08053244 -1 4 C-0.67 2.68 -0.34 1.36 0 0 Z " fill="#B1131C" transform="translate(336,353)"/>
<path d="M0 0 C0.33 0 0.66 0 1 0 C1.05429959 1.74965358 1.09292823 3.49979787 1.125 5.25 C1.14820313 6.22453125 1.17140625 7.1990625 1.1953125 8.203125 C0.99862781 11.0196498 0.44568916 12.60949036 -1 15 C-0.34 15 0.32 15 1 15 C1 15.66 1 16.32 1 17 C-3.12241328 18.99874583 -6.43577549 19.4979154 -11 19 C-13.4375 17 -13.4375 17 -15 15 C-12.98822819 12.98822819 -9.07522667 13.56336065 -6.34765625 13.37890625 C-3.81487227 13.20514276 -3.81487227 13.20514276 -2 11 C-1.31822002 8.34280163 -1.31822002 8.34280163 -0.875 5.375 C-0.70742188 4.37210937 -0.53984375 3.36921875 -0.3671875 2.3359375 C-0.24601562 1.56507813 -0.12484375 0.79421875 0 0 Z " fill="#DC070E" transform="translate(314,343)"/>
<path d="M0 0 C0 0.66 0 1.32 0 2 C-1.7015625 2.4021875 -1.7015625 2.4021875 -3.4375 2.8125 C-4.613125 3.204375 -5.78875 3.59625 -7 4 C-7.33 4.99 -7.66 5.98 -8 7 C-11.0625 8.6875 -11.0625 8.6875 -14 10 C-13.34 10 -12.68 10 -12 10 C-11.67 12.97 -11.34 15.94 -11 19 C-11.99 19 -12.98 19 -14 19 C-15.46715197 14.5985441 -15.97862737 10.57401922 -15 6 C-10.98184322 0.80903096 -6.33947485 -0.79243436 0 0 Z " fill="#E1050B" transform="translate(224,336)"/>
<path d="M0 0 C1.1725131 0.95117134 2.33787015 1.91117009 3.5 2.875 C4.47453125 3.67550781 4.47453125 3.67550781 5.46875 4.4921875 C5.9740625 4.98976562 6.479375 5.48734375 7 6 C7 6.66 7 7.32 7 8 C7.55429688 8.268125 8.10859375 8.53625 8.6796875 8.8125 C11.22488846 10.11509443 13.67011946 11.53439968 16.125 13 C16.99382812 13.515625 17.86265625 14.03125 18.7578125 14.5625 C21 16 21 16 23 18 C22.01 18.66 21.02 19.32 20 20 C17.91414278 19.06496056 16.25963059 18.26717799 14.65625 16.6171875 C12.0492485 14.07167188 8.93995527 12.33078536 5.86328125 10.40234375 C5.24839844 9.93957031 4.63351563 9.47679687 4 9 C4 8.34 4 7.68 4 7 C2.68 7 1.36 7 0 7 C-0.38133299 5.0085944 -0.71325582 3.00720923 -1 1 C-0.67 0.67 -0.34 0.34 0 0 Z " fill="#2B4975" transform="translate(169,240)"/>
<path d="M0 0 C0 0.99 0 1.98 0 3 C-0.99 3.495 -0.99 3.495 -2 4 C-2.433125 5.2375 -2.433125 5.2375 -2.875 6.5 C-3.24625 7.325 -3.6175 8.15 -4 9 C-4.61875 9.144375 -5.2375 9.28875 -5.875 9.4375 C-9.25960324 10.33342439 -10.16651236 13.1610514 -12 16 C-12.99 16.33 -13.98 16.66 -15 17 C-15.6875 15.3125 -15.6875 15.3125 -16 13 C-13.72410715 8.20864663 -10.97160403 4.7242627 -5.9375 2.875 C-4.968125 2.58625 -3.99875 2.2975 -3 2 C-2.01 1.34 -1.02 0.68 0 0 Z " fill="#3A5989" transform="translate(201,156)"/>
<path d="M0 0 C1.05372021 3.16116062 0.95707334 5.69625027 0.90234375 8.9921875 C1.02989808 11.61470456 1.83318265 13.6663653 3 16 C3 15.01 3 14.02 3 13 C3.66 13 4.32 13 5 13 C5.33 12.01 5.66 11.02 6 10 C7.32 10.33 8.64 10.66 10 11 C8.68 11.33 7.36 11.66 6 12 C5.67 13.65 5.34 15.3 5 17 C4.34 17 3.68 17 3 17 C3.66 18.98 4.32 20.96 5 23 C1.02834082 21.67611361 0.044367 19.82871597 -2.05078125 16.32421875 C-4.06106468 11.40191982 -2.615594 6.77435918 -0.9375 1.9375 C-0.4734375 0.9784375 -0.4734375 0.9784375 0 0 Z " fill="#C01116" transform="translate(329,339)"/>
<path d="M0 0 C-1.65020885 2.60559292 -2.56387201 3.836452 -5.5 4.9375 C-8.70386792 6.29914387 -9.35429446 8.02205665 -11 11 C-11.66 11 -12.32 11 -13 11 C-13.33 16.28 -13.66 21.56 -14 27 C-14.33 27 -14.66 27 -15 27 C-15.92004762 10.15290583 -15.92004762 10.15290583 -11.42578125 4.41796875 C-7.82741797 0.83932253 -5.07952429 -0.4353878 0 0 Z " fill="#B7171F" transform="translate(106,325)"/>
<path d="M0 0 C3.3 0 6.6 0 10 0 C10 9.24 10 18.48 10 28 C9.67 28 9.34 28 9 28 C9 19.09 9 10.18 9 1 C6.69 1 4.38 1 2 1 C2 7.6 2 14.2 2 21 C-0.97 21.33 -3.94 21.66 -7 22 C-5.68 21.34 -4.36 20.68 -3 20 C-1.00248812 18.41477593 -0.11299744 17.63076063 0.34057617 15.09887695 C0.32486572 14.40238037 0.30915527 13.70588379 0.29296875 12.98828125 C0.2784668 11.85229492 0.2784668 11.85229492 0.26367188 10.69335938 C0.2259668 9.51483398 0.2259668 9.51483398 0.1875 8.3125 C0.16719727 7.11657227 0.16719727 7.11657227 0.14648438 5.89648438 C0.11117089 3.93070033 0.05736447 1.96526418 0 0 Z " fill="#981D24" transform="translate(262,335)"/>
<path d="M0 0 C0.99386719 0.02707031 1.98773438 0.05414063 3.01171875 0.08203125 C4.15060547 0.13423828 4.15060547 0.13423828 5.3125 0.1875 C4.9825 1.8375 4.6525 3.4875 4.3125 5.1875 C5.116875 5.166875 5.92125 5.14625 6.75 5.125 C9.3125 5.1875 9.3125 5.1875 10.3125 6.1875 C10.45365161 8.85808851 10.35497107 11.51182238 10.3125 14.1875 C9.9825 14.1875 9.6525 14.1875 9.3125 14.1875 C9.3125 11.8775 9.3125 9.5675 9.3125 7.1875 C3.3725 7.6825 3.3725 7.6825 -2.6875 8.1875 C-2.6875 7.5275 -2.6875 6.8675 -2.6875 6.1875 C-1.6975 6.1875 -0.7075 6.1875 0.3125 6.1875 C-0.0175 4.5375 -0.3475 2.8875 -0.6875 1.1875 C-4.30689504 2.91493854 -7.56317603 4.66400757 -10.6875 7.1875 C-8.16861825 1.5684561 -6.31328865 -0.22282195 0 0 Z " fill="#B91013" transform="translate(303.6875,335.8125)"/>
<path d="M0 0 C2.50600794 1.1137813 4.20751624 2.19022322 6.25 4.0625 C9.92705078 6.65314941 12.54995953 6.69830234 17 7 C17.33 6.01 17.66 5.02 18 4 C18.69867188 4.08378906 19.39734375 4.16757812 20.1171875 4.25390625 C21.02726562 4.35574219 21.93734375 4.45757812 22.875 4.5625 C23.77992188 4.66691406 24.68484375 4.77132813 25.6171875 4.87890625 C28.01653057 5.19674852 28.01653057 5.19674852 30 4 C29.67 5.32 29.34 6.64 29 8 C28.41992188 7.90460938 27.83984375 7.80921875 27.2421875 7.7109375 C22.13443057 6.98607431 18.89680463 7.15009603 14 9 C11.125 9.5625 11.125 9.5625 8 9 C5.04422246 6.94916159 2.39542472 4.68725312 0 2 C0 1.34 0 0.68 0 0 Z " fill="#920F0F" transform="translate(293,356)"/>
<path d="M0 0 C0.99 0.33 1.98 0.66 3 1 C2.01 1.33 1.02 1.66 0 2 C-0.33 2.66 -0.66 3.32 -1 4 C-6.59971476 7.78804233 -12.85595303 10.00853994 -19.1875 12.25 C-20.19167969 12.60578125 -21.19585937 12.9615625 -22.23046875 13.328125 C-25.01581553 14.00383677 -26.35469415 13.98488714 -29 13 C-21.66329104 9.89346557 -14.29707774 6.94427594 -6.8125 4.2109375 C-3.97687033 3.13137792 -3.97687033 3.13137792 -1.8125 1.2890625 C-1.214375 0.86367188 -0.61625 0.43828125 0 0 Z " fill="#34496C" transform="translate(277,280)"/>
<path d="M0 0 C3.3 0 6.6 0 10 0 C10.33 2.31 10.66 4.62 11 7 C8.11788698 7.96070434 6.30149956 8.10581883 3.3125 8.0625 C2.10013672 8.04896484 2.10013672 8.04896484 0.86328125 8.03515625 C-0.05904297 8.01775391 -0.05904297 8.01775391 -1 8 C2.21639654 6.25434889 4.32013404 5.795563 8 6 C8 5.34 8 4.68 8 4 C5.69 4.33 3.38 4.66 1 5 C2 2 2 2 3 1 C2.01 0.67 1.02 0.34 0 0 Z " fill="#DE141A" transform="translate(180,356)"/>
<path d="M0 0 C4.5531636 -0.40472565 7.68123966 0.12156878 11.9375 1.8125 C19.07876079 4.61514565 26.46513187 5.75206701 34 7 C34 7.33 34 7.66 34 8 C22.06402995 8.89333664 10.96966109 5.47741269 0 1 C0 0.67 0 0.34 0 0 Z " fill="#33496D" transform="translate(182,288)"/>
<path d="M0 0 C0.33 0 0.66 0 1 0 C1.12117188 1.17175781 1.24234375 2.34351563 1.3671875 3.55078125 C2.27206679 12.10252774 3.25451887 20.56969752 5 29 C4.34 29 3.68 29 3 29 C0.7085347 22.32736833 -0.34942747 15.8853881 -0.75 8.875 C-0.79439209 8.11646729 -0.83878418 7.35793457 -0.88452148 6.57641602 C-0.9709076 4.71922017 -0.99152991 2.85918456 -1 1 C-0.67 0.67 -0.34 0.34 0 0 Z " fill="#324766" transform="translate(120,190)"/>
<path d="M0 0 C0.66 0.66 1.32 1.32 2 2 C0.02 2 -1.96 2 -4 2 C-4.28875 2.639375 -4.5775 3.27875 -4.875 3.9375 C-6 6 -6 6 -8 7 C-8.33 8.32 -8.66 9.64 -9 11 C-5.7 11.33 -2.4 11.66 1 12 C1 12.33 1 12.66 1 13 C-4.94 13.495 -4.94 13.495 -11 14 C-9.95650338 3.86317568 -9.95650338 3.86317568 -9 1 C-5.98675805 -0.50662097 -3.31713623 -0.17770373 0 0 Z " fill="#AE1417" transform="translate(109,331)"/>
<path d="M0 0 C1.5625 1.0625 1.5625 1.0625 3 3 C2.6875 6.6875 2.6875 6.6875 2 10 C-0.97 9.505 -0.97 9.505 -4 9 C-4 6.69 -4 4.38 -4 2 C-2.68 1.34 -1.36 0.68 0 0 Z " fill="#B41923" transform="translate(132,323)"/>
<path d="M0 0 C-0.66 0.33 -1.32 0.66 -2 1 C-2.33 1.66 -2.66 2.32 -3 3 C-3 2.34 -3 1.68 -3 1 C-18.84 1 -34.68 1 -51 1 C-51 0.67 -51 0.34 -51 0 C-44.21915837 -0.16817034 -37.43815817 -0.32807108 -30.65698242 -0.48217773 C-28.34932014 -0.53560261 -26.04170114 -0.59093234 -23.73413086 -0.64819336 C-20.42050512 -0.73009041 -17.10678495 -0.80517364 -13.79296875 -0.87890625 C-12.24128242 -0.91945885 -12.24128242 -0.91945885 -10.6582489 -0.96083069 C-9.21709465 -0.99097511 -9.21709465 -0.99097511 -7.74682617 -1.02172852 C-6.47774666 -1.05170677 -6.47774666 -1.05170677 -5.18302917 -1.08229065 C-3 -1 -3 -1 0 0 Z " fill="#3F4F6C" transform="translate(267,236)"/>
<path d="M0 0 C0.99 0.99 1.98 1.98 3 3 C2.67 3.66 2.34 4.32 2 5 C1.93049459 6.54023996 1.91547643 8.08334988 1.9375 9.625 C1.94652344 10.44226563 1.95554687 11.25953125 1.96484375 12.1015625 C1.97644531 12.72804688 1.98804688 13.35453125 2 14 C2.66 14 3.32 14 4 14 C4 16.64 4 19.28 4 22 C2.68 22 1.36 22 0 22 C0 14.74 0 7.48 0 0 Z " fill="#E50409" transform="translate(280,340)"/>
<path d="M0 0 C0.66 0.33 1.32 0.66 2 1 C2.59765625 3.07421875 2.59765625 3.07421875 3.0625 5.6875 C3.30613281 7.04294922 3.30613281 7.04294922 3.5546875 8.42578125 C3.70164063 9.27527344 3.84859375 10.12476563 4 11 C4.3403125 12.670625 4.3403125 12.670625 4.6875 14.375 C4.99283883 16.93984613 4.83822414 18.57846361 4 21 C3.34 21 2.68 21 2 21 C-0.11412577 14.79856441 -0.87079559 8.54966951 -1 2 C-0.67 1.34 -0.34 0.68 0 0 Z " fill="#344F78" transform="translate(150,197)"/>
<path d="M0 0 C0 1.32 0 2.64 0 4 C0.78375 4.12375 1.5675 4.2475 2.375 4.375 C5 5 5 5 7 7 C-1.23880597 7.32309043 -1.23880597 7.32309043 -5 5 C-5.8125 2.375 -5.8125 2.375 -6 0 C-3.50907189 -1.24546405 -2.58919267 -0.7767578 0 0 Z " fill="#D5050C" transform="translate(338,356)"/>
<path d="M0 0 C0.33 0 0.66 0 1 0 C1 12.87 1 25.74 1 39 C-1.64 39 -4.28 39 -7 39 C-7 38.67 -7 38.34 -7 38 C-5.02 37.34 -3.04 36.68 -1 36 C-0.67 24.12 -0.34 12.24 0 0 Z " fill="#902120" transform="translate(120,325)"/>
<path d="M0 0 C1.51400391 0.01740234 1.51400391 0.01740234 3.05859375 0.03515625 C4.07050781 0.04417969 5.08242187 0.05320312 6.125 0.0625 C7.29869141 0.07990234 7.29869141 0.07990234 8.49609375 0.09765625 C8.49609375 0.42765625 8.49609375 0.75765625 8.49609375 1.09765625 C7.88121094 1.21882813 7.26632813 1.34 6.6328125 1.46484375 C5.82457031 1.63242188 5.01632813 1.8 4.18359375 1.97265625 C2.98283203 2.21628906 2.98283203 2.21628906 1.7578125 2.46484375 C-0.75691743 3.04244624 -0.75691743 3.04244624 -3.50390625 5.09765625 C-4.45265625 5.40703125 -5.40140625 5.71640625 -6.37890625 6.03515625 C-9.41229477 7.06650835 -11.82359324 8.36333607 -14.50390625 10.09765625 C-14.06640625 7.28515625 -14.06640625 7.28515625 -12.50390625 4.09765625 C-10.20357689 2.9688701 -7.97508483 2.2940474 -5.5 1.640625 C-2.88703216 0.92985684 -2.86080926 0.11157602 0 0 Z " fill="#3C5A8F" transform="translate(199.50390625,118.90234375)"/>
<path d="M0 0 C2.36574234 3.5486135 2.10865265 4.5764525 1.625 8.6875 C1.51414062 9.68136719 1.40328125 10.67523438 1.2890625 11.69921875 C1.19367188 12.45847656 1.09828125 13.21773438 1 14 C-0.32 14 -1.64 14 -3 14 C-3.34615998 8.34605369 -2.43425238 4.96993194 0 0 Z " fill="#DF0408" transform="translate(296,342)"/>
<path d="M0 0 C2 1 2 1 2.81640625 3.43359375 C3.06261719 4.42488281 3.30882812 5.41617187 3.5625 6.4375 C4.50185245 10.32254047 4.50185245 10.32254047 6 14 C5.0625 16.125 5.0625 16.125 4 18 C3.67 16.35 3.34 14.7 3 13 C2.34 13 1.68 13 1 13 C0.855625 11.88625 0.71125 10.7725 0.5625 9.625 C0.21627965 6.17857953 0.21627965 6.17857953 -1 4 C-0.5625 1.875 -0.5625 1.875 0 0 Z " fill="#DD070D" transform="translate(317,343)"/>
<path d="M0 0 C5.6249793 4.38748386 9.30620592 8.91132843 13 15 C10 15 10 15 7.375 12.6875 C5 10 5 10 4 7 C3.34 6.34 2.68 5.68 2 5 C1.29289322 3.35008418 0.62056011 1.68437744 0 0 Z " fill="#263E63" transform="translate(299,120)"/>
<path d="M0 0 C0.99 0.495 0.99 0.495 2 1 C2 2.32 2 3.64 2 5 C2.90363281 4.855625 3.80726563 4.71125 4.73828125 4.5625 C5.91777344 4.376875 7.09726563 4.19125 8.3125 4 C9.48425781 3.814375 10.65601563 3.62875 11.86328125 3.4375 C15 3 15 3 18 3 C18 3.66 18 4.32 18 5 C12.20694363 6.5019035 6.99251613 7.32102765 1 7 C0 6 0 6 -0.0625 2.9375 C-0.041875 1.968125 -0.02125 0.99875 0 0 Z " fill="#CE0E0E" transform="translate(170,357)"/>
<path d="M0 0 C0.99 0 1.98 0 3 0 C1.84031651 3.47905046 1.16252073 3.81138872 -1.875 5.625 C-2.57367188 6.05039063 -3.27234375 6.47578125 -3.9921875 6.9140625 C-6 8 -6 8 -9 9 C-9 9.66 -9 10.32 -9 11 C-10.98 11.99 -10.98 11.99 -13 13 C-13.33 12.01 -13.66 11.02 -14 10 C-9.51750177 6.48453819 -5.22861968 3.35287886 0 1 C0 0.67 0 0.34 0 0 Z " fill="#2D486A" transform="translate(187,126)"/>
<path d="M0 0 C1.79158489 -0.02696365 3.58328473 -0.04637917 5.375 -0.0625 C6.37273437 -0.07410156 7.37046875 -0.08570313 8.3984375 -0.09765625 C11 0 11 0 13 1 C13 2.65 13 4.3 13 6 C12.01 6 11.02 6 10 6 C10.33 7.32 10.66 8.64 11 10 C10.01 10 9.02 10 8 10 C7.67 8.35 7.34 6.7 7 5 C8.32 5 9.64 5 11 5 C9.87890434 3.37506099 9.87890434 3.37506099 8 2 C4.56797729 1.71399811 2.27570125 1.90809958 -1 3 C-0.67 2.01 -0.34 1.02 0 0 Z " fill="#BB0A0C" transform="translate(337,341)"/>
<path d="M0 0 C0.55945313 0.18175781 1.11890625 0.36351562 1.6953125 0.55078125 C9.03489231 2.85177492 16.46615047 4.46934757 24 6 C24 6.33 24 6.66 24 7 C14.90981696 7.16527606 7.76287122 7.12019166 0 2 C0 1.34 0 0.68 0 0 Z " fill="#334A6E" transform="translate(192,258)"/>
<path d="M0 0 C0.66 0.66 1.32 1.32 2 2 C0.96939453 2.05607422 0.96939453 2.05607422 -0.08203125 2.11328125 C-0.98308594 2.17902344 -1.88414062 2.24476563 -2.8125 2.3125 C-3.70582031 2.37050781 -4.59914062 2.42851562 -5.51953125 2.48828125 C-8.36436142 3.07516747 -9.12683007 3.86545753 -11 6 C-13.6875 7.1875 -13.6875 7.1875 -16 8 C-12.65710346 0.19990807 -8.14820339 -1.22081096 0 0 Z " fill="#BA1720" transform="translate(225,334)"/>
<path d="M0 0 C0.33 0 0.66 0 1 0 C1 5.61 1 11.22 1 17 C-1 16 -1 16 -2.25 13.5 C-3.22534301 8.9483993 -2.43081392 5.38475232 -1 1 C-0.67 0.67 -0.34 0.34 0 0 Z " fill="#27476F" transform="translate(151,180)"/>
<path d="M0 0 C0.66 0.33 1.32 0.66 2 1 C2 1.66 2 2.32 2 3 C2.804375 3.268125 3.60875 3.53625 4.4375 3.8125 C5.283125 4.204375 6.12875 4.59625 7 5 C8.06546953 8.1964086 8.07427838 10.65747276 8 14 C7.01 14.495 7.01 14.495 6 15 C5.16180842 13.37750059 4.3295884 11.75191503 3.5 10.125 C3.0359375 9.22007812 2.571875 8.31515625 2.09375 7.3828125 C1 5 1 5 1 3 C0.34 2.67 -0.32 2.34 -1 2 C-0.67 1.34 -0.34 0.68 0 0 Z " fill="#33527B" transform="translate(284,149)"/>
<path d="M0 0 C7.07818597 1.62208429 12.97374218 4.67899249 18 10 C15.625 10.1875 15.625 10.1875 13 10 C12.34 9.01 11.68 8.02 11 7 C8.44816596 5.79549696 8.44816596 5.79549696 6 5 C6 4.34 6 3.68 6 3 C4.35 3 2.7 3 1 3 C0.67 2.01 0.34 1.02 0 0 Z " fill="#2D446D" transform="translate(236,149)"/>
<path d="M0 0 C6.17398461 3.15267299 10.94783982 7.28006804 16 12 C15.01 12.33 14.02 12.66 13 13 C13 12.34 13 11.68 13 11 C12.01 10.67 11.02 10.34 10 10 C10 9.34 10 8.68 10 8 C9.236875 7.896875 8.47375 7.79375 7.6875 7.6875 C4.81583516 6.95288806 3.76957906 6.3283935 2 4 C2 3.34 2 2.68 2 2 C1.34 2 0.68 2 0 2 C0 1.34 0 0.68 0 0 Z " fill="#2A456F" transform="translate(280,104)"/>
<path d="M0 0 C0.99 0 1.98 0 3 0 C3 0.66 3 1.32 3 2 C3.99 2.103125 4.98 2.20625 6 2.3125 C10.28297163 2.90808706 13.99996371 4.38595027 18 6 C18 6.33 18 6.66 18 7 C11.56779981 6.3229263 5.49714648 5.66476432 0 2 C0 1.34 0 0.68 0 0 Z " fill="#23385C" transform="translate(246,89)"/>
<path d="M0 0 C2 2 2 2 2.1953125 4.6015625 C2.17210938 5.59929687 2.14890625 6.59703125 2.125 7.625 C2.10695313 8.62789063 2.08890625 9.63078125 2.0703125 10.6640625 C2.03550781 11.82035156 2.03550781 11.82035156 2 13 C2.99 13 3.98 13 5 13 C5.33 11.68 5.66 10.36 6 9 C6 11.31 6 13.62 6 16 C4.02 16 2.04 16 0 16 C0.02320312 15.15695312 0.04640625 14.31390625 0.0703125 13.4453125 C0.08835937 12.34960938 0.10640625 11.25390625 0.125 10.125 C0.15980469 8.48917969 0.15980469 8.48917969 0.1953125 6.8203125 C0.30060534 3.8628949 0.30060534 3.8628949 -2 2 C-1.34 2 -0.68 2 0 2 C0 1.34 0 0.68 0 0 Z " fill="#C7060A" transform="translate(112,347)"/>
<path d="M0 0 C0.33 0 0.66 0 1 0 C1.28875 0.94875 1.5775 1.8975 1.875 2.875 C2.76825109 6.05211578 2.76825109 6.05211578 5 8 C7.44012949 8.24287489 7.44012949 8.24287489 10.125 8.125 C11.03507813 8.10695313 11.94515625 8.08890625 12.8828125 8.0703125 C13.58148438 8.04710937 14.28015625 8.02390625 15 8 C15 8.66 15 9.32 15 10 C12.69 10 10.38 10 8 10 C8 10.66 8 11.32 8 12 C5.0280615 10.87548273 2.66559313 9.77706209 0 8 C-0.40843923 5.28796348 -0.13336867 2.7562858 0 0 Z " fill="#AB1517" transform="translate(214,346)"/>
<path d="M0 0 C-0.33 2.31 -0.66 4.62 -1 7 C-3.97 6.505 -3.97 6.505 -7 6 C-7.33 4.35 -7.66 2.7 -8 1 C-5.07175348 0.02391783 -3.04386724 -0.08226668 0 0 Z " fill="#DF101A" transform="translate(161,335)"/>
<path d="M0 0 C0.66 0.99 1.32 1.98 2 3 C1.34 3 0.68 3 0 3 C0 6.3 0 9.6 0 13 C-4.61073111 14.29676812 -8.33840089 13.71109139 -13 13 C-13 12.67 -13 12.34 -13 12 C-9.04 12 -5.08 12 -1 12 C-1.66 8.7 -2.32 5.4 -3 2 C-2.01 1.34 -1.02 0.68 0 0 Z " fill="#941721" transform="translate(314,323)"/>
<path d="M0 0 C0.33 0.66 0.66 1.32 1 2 C1.66 2 2.32 2 3 2 C3.33 4.31 3.66 6.62 4 9 C2.35 9.33 0.7 9.66 -1 10 C-1.09978121 6.50765756 -0.77842938 3.40562852 0 0 Z " fill="#D8080E" transform="translate(281,322)"/>
<path d="M0 0 C2.14465998 4.28931995 2.11172335 5.49318819 1.5625 10.0625 C1.00483536 14.59837472 1.00483536 14.59837472 2 19 C2.66 19.66 3.32 20.32 4 21 C2.68 21 1.36 21 0 21 C0 20.01 0 19.02 0 18 C-0.66 18 -1.32 18 -2 18 C-1.34 12.06 -0.68 6.12 0 0 Z " fill="#D50A0C" transform="translate(92,342)"/>
<path d="M0 0 C-0.33 1.65 -0.66 3.3 -1 5 C-1.66 5 -2.32 5 -3 5 C-3.33 5.66 -3.66 6.32 -4 7 C-6 5 -6 5 -6.125 2.375 C-6.08375 1.59125 -6.0425 0.8075 -6 0 C-3.50907189 -1.24546405 -2.58919267 -0.7767578 0 0 Z " fill="#DE0B14" transform="translate(202,327)"/>
<path d="M0 0 C3 3 3 3 3.36328125 5.19140625 C3.34652344 5.97386719 3.32976562 6.75632812 3.3125 7.5625 C3.30863281 8.34753906 3.30476562 9.13257813 3.30078125 9.94140625 C3 12 3 12 1 14 C1 13.34 1 12.68 1 12 C0.01 11.67 -0.98 11.34 -2 11 C-1.34 11 -0.68 11 0 11 C0 7.37 0 3.74 0 0 Z " fill="#98171D" transform="translate(134,322)"/>
<path d="M0 0 C0.66 0 1.32 0 2 0 C0.90301833 5.69139902 -0.54053077 10.74567937 -3 16 C-4.07310858 12.72814447 -3.89263102 10.57052408 -3.0625 7.25 C-2.77052734 6.05117187 -2.77052734 6.05117187 -2.47265625 4.828125 C-2.31667969 4.22484375 -2.16070312 3.6215625 -2 3 C-1.34 3 -0.68 3 0 3 C0 2.01 0 1.02 0 0 Z " fill="#3B5988" transform="translate(185,173)"/>
<path d="M0 0 C3.41021743 0.78697325 6.68885166 1.87119943 10 3 C10 3.66 10 4.32 10 5 C11.98 5.66 13.96 6.32 16 7 C13.04893565 8.25348607 12.02593537 8.01044806 8.984375 6.78515625 C7.91703125 6.21667969 6.8496875 5.64820312 5.75 5.0625 C4.67234375 4.49660156 3.5946875 3.93070312 2.484375 3.34765625 C1.66453125 2.90292969 0.8446875 2.45820312 0 2 C0 1.34 0 0.68 0 0 Z " fill="#284069" transform="translate(264,96)"/>
<path d="M0 0 C0.33 0 0.66 0 1 0 C1.07347656 1.12148438 1.07347656 1.12148438 1.1484375 2.265625 C1.22320312 3.25046875 1.29796875 4.2353125 1.375 5.25 C1.44460937 6.22453125 1.51421875 7.1990625 1.5859375 8.203125 C1.98465249 10.89633189 2.63507063 12.66963279 4 15 C1.525 14.01 1.525 14.01 -1 13 C-1.02686553 11.02090602 -1.04633375 9.04171029 -1.0625 7.0625 C-1.07410156 5.96035156 -1.08570313 4.85820312 -1.09765625 3.72265625 C-1 1 -1 1 0 0 Z " fill="#AA1117" transform="translate(251,341)"/>
<path d="M0 0 C1.32 0 2.64 0 4 0 C4.33 0.99 4.66 1.98 5 3 C0.05 3 -4.9 3 -10 3 C-10 2.34 -10 1.68 -10 1 C-9.36191406 1.01160156 -8.72382813 1.02320313 -8.06640625 1.03515625 C-7.24011719 1.04417969 -6.41382813 1.05320312 -5.5625 1.0625 C-4.32693359 1.07990234 -4.32693359 1.07990234 -3.06640625 1.09765625 C-1.00836062 1.23267348 -1.00836062 1.23267348 0 0 Z " fill="#3A4E7B" transform="translate(242,293)"/>
<path d="M0 0 C3.85025879 0.60355408 6.86101159 1.76772603 10.3125 3.5625 C11.19550781 4.01753906 12.07851562 4.47257812 12.98828125 4.94140625 C13.65214844 5.29074219 14.31601563 5.64007813 15 6 C14.67 6.66 14.34 7.32 14 8 C8.76481294 6.56032356 4.36973991 4.18303389 0 1 C0 0.67 0 0.34 0 0 Z " fill="#34486C" transform="translate(168,280)"/>
<path d="M0 0 C0.66 0.33 1.32 0.66 2 1 C0.4169423 5.2742558 -2.50568404 7.26531794 -6 10 C-6.33 9.01 -6.66 8.02 -7 7 C-6.67 6.34 -6.34 5.68 -6 5 C-5.01 5 -4.02 5 -3 5 C-3 4.01 -3 3.02 -3 2 C-2.01 2 -1.02 2 0 2 C0 1.34 0 0.68 0 0 Z " fill="#36425B" transform="translate(300,260)"/>
<path d="M0 0 C0.33 0 0.66 0 1 0 C1 5.61 1 11.22 1 17 C-1.97 17.33 -4.94 17.66 -8 18 C-6.68 17.34 -5.36 16.68 -4 16 C-2.19595835 14.86288415 -2.19595835 14.86288415 -1 13 C-0.41907008 9.80754002 -0.41907008 9.80754002 -0.3125 6.3125 C-0.24675781 5.13300781 -0.18101562 3.95351563 -0.11328125 2.73828125 C-0.07589844 1.83464844 -0.03851563 0.93101562 0 0 Z " fill="#AD1E23" transform="translate(263,339)"/>
<path d="M0 0 C3.72007056 4.11864955 8 10.20736961 8 16 C7.34 16 6.68 16 6 16 C5.54625 14.88625 5.0925 13.7725 4.625 12.625 C3.27534014 9.03800992 3.27534014 9.03800992 1 7 C0.59952556 4.67724823 0.2602896 2.34260643 0 0 Z " fill="#30496A" transform="translate(312,136)"/>
<path d="M0 0 C1.4606285 2.64738916 2 3.89448334 2 7 C-0.88211302 7.96070434 -2.69850044 8.10581883 -5.6875 8.0625 C-6.89986328 8.04896484 -6.89986328 8.04896484 -8.13671875 8.03515625 C-9.05904297 8.01775391 -9.05904297 8.01775391 -10 8 C-6.78360346 6.25434889 -4.67986596 5.795563 -1 6 C-0.67 4.02 -0.34 2.04 0 0 Z " fill="#B41A1B" transform="translate(189,356)"/>
<path d="M0 0 C-3.16057062 1.05352354 -5.76117725 1.01297415 -9.0625 0.9765625 C-11.2033961 1.00246044 -13.00432009 1.20172804 -15 2 C-15.33 2.66 -15.66 3.32 -16 4 C-16.99 4 -17.98 4 -19 4 C-18 1 -18 1 -16.25 -0.01953125 C-10.21941773 -2.14489271 -6.05731368 -1.99046478 0 0 Z " fill="#AA1722" transform="translate(350,335)"/>
<path d="M0 0 C0.33 0 0.66 0 1 0 C1.06058594 0.69867188 1.12117188 1.39734375 1.18359375 2.1171875 C1.26738281 3.02726563 1.35117187 3.93734375 1.4375 4.875 C1.55931641 6.23238281 1.55931641 6.23238281 1.68359375 7.6171875 C1.86989285 10.01110861 1.86989285 10.01110861 3 12 C3.99 12 4.98 12 6 12 C6 12.66 6 13.32 6 14 C3.69 14.33 1.38 14.66 -1 15 C-0.67 10.05 -0.34 5.1 0 0 Z " fill="#344D77" transform="translate(298,247)"/>
<path d="M0 0 C-0.66 0.66 -1.32 1.32 -2 2 C-1.67 2.66 -1.34 3.32 -1 4 C-3.31 4 -5.62 4 -8 4 C-8 2.68 -8 1.36 -8 0 C-5.13822943 -1.43088528 -3.06624227 -0.59991697 0 0 Z " fill="#E50E0E" transform="translate(228,358)"/>
<path d="M0 0 C1.60725635 3.21451269 1.05748185 6.43612536 1 10 C-0.32 10 -1.64 10 -3 10 C-3.36923077 3.47692308 -3.36923077 3.47692308 -1.5 1.0625 C-1.005 0.711875 -0.51 0.36125 0 0 Z " fill="#B71417" transform="translate(300,344)"/>
<path d="M0 0 C6.35583327 0.86670454 12.67551301 1.93034128 19 3 C19 3.33 19 3.66 19 4 C11.87399867 4.35368021 6.52940894 3.95671348 0 1 C0 0.67 0 0.34 0 0 Z " fill="#3F517B" transform="translate(197,292)"/>
<path d="M0 0 C2.64 0 5.28 0 8 0 C8.33 0.66 8.66 1.32 9 2 C11.52733235 2.65555119 11.52733235 2.65555119 14 3 C14 3.66 14 4.32 14 5 C8.72250715 4.46148032 4.74354436 3.22656164 0 1 C0 0.67 0 0.34 0 0 Z " fill="#365689" transform="translate(228,149)"/>
<path d="M0 0 C2 3 2 3 2 6 C1.34 6 0.68 6 0 6 C0 7.32 0 8.64 0 10 C-2.64 9.67 -5.28 9.34 -8 9 C-8 8.67 -8 8.34 -8 8 C-5.69 8 -3.38 8 -1 8 C-1.33 6.68 -1.66 5.36 -2 4 C-1.34 4 -0.68 4 0 4 C0 2.68 0 1.36 0 0 Z " fill="#CA0C0A" transform="translate(230,348)"/>
<path d="M0 0 C0.66 0 1.32 0 2 0 C2.0825 0.7425 2.165 1.485 2.25 2.25 C3.1396946 5.51221354 4.48503749 6.80954878 7 9 C6.67 9.99 6.34 10.98 6 12 C5.67 11.34 5.34 10.68 5 10 C4.01 9.67 3.02 9.34 2 9 C1.26953125 6.93359375 1.26953125 6.93359375 0.8125 4.4375 C0.65394531 3.61121094 0.49539062 2.78492188 0.33203125 1.93359375 C0.16767578 0.97646484 0.16767578 0.97646484 0 0 Z " fill="#AF1117" transform="translate(244,352)"/>
<path d="M0 0 C0.66 0.33 1.32 0.66 2 1 C4.09821215 0.60061233 4.09821215 0.60061233 6 0 C6.33 0.66 6.66 1.32 7 2 C1.4584498 3.96263236 -2.20858017 4.01603857 -8 3 C-8 2.34 -8 1.68 -8 1 C-7.05125 1.020625 -6.1025 1.04125 -5.125 1.0625 C-2.09333717 1.22551826 -2.09333717 1.22551826 0 0 Z " fill="#AB1620" transform="translate(153,333)"/>
<path d="M0 0 C0.33 0 0.66 0 1 0 C0.95875 1.216875 0.9175 2.43375 0.875 3.6875 C0.86245492 7.21894127 1.40001783 9.80003566 3 13 C1.02 13.99 1.02 13.99 -1 15 C-0.79375 14.401875 -0.5875 13.80375 -0.375 13.1875 C0.30671915 10.71549154 0.30671915 10.71549154 -2 8 C-1.66906957 5.20844173 -0.79958861 2.70971696 0 0 Z " fill="#32558F" transform="translate(148,184)"/>
<path d="M0 0 C0.66 0 1.32 0 2 0 C1.67 1.98 1.34 3.96 1 6 C4.3 6.33 7.6 6.66 11 7 C11 7.33 11 7.66 11 8 C5.06 8.495 5.06 8.495 -1 9 C-0.67 6.03 -0.34 3.06 0 0 Z " fill="#AD2024" transform="translate(99,336)"/>
<path d="M0 0 C1.65 0 3.3 0 5 0 C4.67 1.98 4.34 3.96 4 6 C2.68 5.67 1.36 5.34 0 5 C0 3.35 0 1.7 0 0 Z " fill="#D80613" transform="translate(130,326)"/>
<path d="M0 0 C0.8971875 0.309375 0.8971875 0.309375 1.8125 0.625 C0.1915787 1.79732685 -1.43436833 2.9627077 -3.0625 4.125 C-3.96742188 4.7746875 -4.87234375 5.424375 -5.8046875 6.09375 C-8.1875 7.625 -8.1875 7.625 -10.1875 7.625 C-9.8575 6.635 -9.5275 5.645 -9.1875 4.625 C-7.125 3.9375 -7.125 3.9375 -5.1875 3.625 C-5.1875 2.965 -5.1875 2.305 -5.1875 1.625 C-2.1875 -0.375 -2.1875 -0.375 0 0 Z " fill="#354C6D" transform="translate(290.1875,272.375)"/>
<path d="M0 0 C1.46224799 0.42423244 2.91973412 0.86490245 4.375 1.3125 C5.18710938 1.55613281 5.99921875 1.79976562 6.8359375 2.05078125 C9 3 9 3 11 6 C9.54096742 5.69078116 8.08279278 5.37751201 6.625 5.0625 C5.81289062 4.88847656 5.00078125 4.71445313 4.1640625 4.53515625 C2 4 2 4 0 3 C0 2.01 0 1.02 0 0 Z " fill="#384F75" transform="translate(205,230)"/>
<path d="M0 0 C3 1 3 1 5 2 C5 2.66 5 3.32 5 4 C-0.38490641 4.91657981 -5.54230189 5.11138159 -11 5 C-11 4.67 -11 4.34 -11 4 C-10.28972656 3.87882812 -9.57945312 3.75765625 -8.84765625 3.6328125 C-7.92855469 3.46523437 -7.00945312 3.29765625 -6.0625 3.125 C-5.14597656 2.96257812 -4.22945312 2.80015625 -3.28515625 2.6328125 C-2.53105469 2.42398438 -1.77695313 2.21515625 -1 2 C-0.67 1.34 -0.34 0.68 0 0 Z " fill="#3B598E" transform="translate(219,114)"/>
<path d="M0 0 C1.65 0 3.3 0 5 0 C5.33 1.32 5.66 2.64 6 4 C3.69 4 1.38 4 -1 4 C-0.67 2.68 -0.34 1.36 0 0 Z " fill="#E5190F" transform="translate(339,347)"/>
<path d="M0 0 C0.66 0 1.32 0 2 0 C2 5.94 2 11.88 2 18 C1.67 18 1.34 18 1 18 C0.92652344 17.06027344 0.92652344 17.06027344 0.8515625 16.1015625 C0.77679688 15.28429687 0.70203125 14.46703125 0.625 13.625 C0.55539063 12.81289063 0.48578125 12.00078125 0.4140625 11.1640625 C0.17107412 8.79665809 0.17107412 8.79665809 -2 7 C-1.34 6.67 -0.68 6.34 0 6 C0 4.02 0 2.04 0 0 Z " fill="#9F292D" transform="translate(201,325)"/>
<path d="M0 0 C0.33 0.66 0.66 1.32 1 2 C1.99 1.67 2.98 1.34 4 1 C4.99 1.66 5.98 2.32 7 3 C6.34 3.66 5.68 4.32 5 5 C3.68 5 2.36 5 1 5 C1 6.65 1 8.3 1 10 C0.67 10 0.34 10 0 10 C0 6.7 0 3.4 0 0 Z " fill="#9C0D11" transform="translate(195,322)"/>
<path d="M0 0 C0.66 0 1.32 0 2 0 C2 0.66 2 1.32 2 2 C3.32 1.67 4.64 1.34 6 1 C6.66 3.31 7.32 5.62 8 8 C7.34 8 6.68 8 6 8 C6 7.34 6 6.68 6 6 C5.01 6 4.02 6 3 6 C2.01 4.02 1.02 2.04 0 0 Z " fill="#2E537B" transform="translate(136,248)"/>
<path d="M0 0 C0.99 0.33 1.98 0.66 3 1 C3.66 4.3 4.32 7.6 5 11 C4.34 11 3.68 11 3 11 C2.49384702 9.73160474 1.99530901 8.46016898 1.5 7.1875 C1.2215625 6.47980469 0.943125 5.77210938 0.65625 5.04296875 C0 3 0 3 0 0 Z " fill="#2A4D6A" transform="translate(291,164)"/>
<path d="M0 0 C0.69867188 0.08378906 1.39734375 0.16757812 2.1171875 0.25390625 C3.02726562 0.35574219 3.93734375 0.45757812 4.875 0.5625 C5.77992188 0.66691406 6.68484375 0.77132813 7.6171875 0.87890625 C10.01653057 1.19674852 10.01653057 1.19674852 12 0 C11.67 1.32 11.34 2.64 11 4 C8.36 3.67 5.72 3.34 3 3 C3 2.34 3 1.68 3 1 C2.01 0.67 1.02 0.34 0 0 Z " fill="#B31E17" transform="translate(311,360)"/>
<path d="M0 0 C0.66 0 1.32 0 2 0 C2 0.99 2 1.98 2 3 C4.97065509 2.65772428 4.97065509 2.65772428 8 2 C8.33 1.34 8.66 0.68 9 0 C9 1.32 9 2.64 9 4 C6.08517222 4.80967438 4.53886783 5.21845993 1.6875 4.0625 C1.130625 3.711875 0.57375 3.36125 0 3 C0 2.01 0 1.02 0 0 Z " fill="#901817" transform="translate(90,360)"/>
<path d="M0 0 C-0.3125 1.9375 -0.3125 1.9375 -1 4 C-4 5 -4 5 -6.1875 4.0625 C-6.785625 3.711875 -7.38375 3.36125 -8 3 C-8 2.34 -8 1.68 -8 1 C-2.25 0 -2.25 0 0 0 Z " fill="#E60707" transform="translate(260,358)"/>
<path d="M0 0 C0.66 0.99 1.32 1.98 2 3 C1.34 4.32 0.68 5.64 0 7 C-0.66 7 -1.32 7 -2 7 C-1.125 1.125 -1.125 1.125 0 0 Z M-3 7 C-2.67 7 -2.34 7 -2 7 C-2 9.31 -2 11.62 -2 14 C-2.33 14 -2.66 14 -3 14 C-3 11.69 -3 9.38 -3 7 Z " fill="#D50104" transform="translate(296,342)"/>
<path d="M0 0 C1.32 1.32 2.64 2.64 4 4 C3.67 4.99 3.34 5.98 3 7 C1.68 6.67 0.36 6.34 -1 6 C-1.33 4.35 -1.66 2.7 -2 1 C-1.34 0.67 -0.68 0.34 0 0 Z " fill="#E70B0F" transform="translate(234,364)"/>
<path d="M0 0 C2.29013653 3.4352048 2.17842973 4.985331 2 9 C1.01 9.33 0.02 9.66 -1 10 C-2.31223496 6.06329512 -1.24296256 3.87511856 0 0 Z " fill="#EB0308" transform="translate(317,333)"/>
<path d="M0 0 C1.1446875 0.2784375 1.1446875 0.2784375 2.3125 0.5625 C5.08967375 1.22819173 5.08967375 1.22819173 8 0 C8 0.66 8 1.32 8 2 C9.98 2 11.96 2 14 2 C14 2.33 14 2.66 14 3 C12.04174127 3.02694851 10.08337774 3.04637218 8.125 3.0625 C7.03445312 3.07410156 5.94390625 3.08570312 4.8203125 3.09765625 C2 3 2 3 0 2 C0 1.34 0 0.68 0 0 Z " fill="#3A598E" transform="translate(226,116)"/>
<path d="M0 0 C0.33 0.99 0.66 1.98 1 3 C1.66 3 2.32 3 3 3 C3.33 4.98 3.66 6.96 4 9 C3.67 8.34 3.34 7.68 3 7 C2.34 7 1.68 7 1 7 C1 6.34 1 5.68 1 5 C0.34 5 -0.32 5 -1 5 C-0.67 3.35 -0.34 1.7 0 0 Z " fill="#7C1013" transform="translate(177,322)"/>
<path d="M0 0 C2.40072955 2.88087546 4.47291037 5.56404834 6 9 C5.01 9 4.02 9 3 9 C0.50022457 5.66696609 0 4.26696398 0 0 Z " fill="#274069" transform="translate(162,231)"/>
<path d="M0 0 C0.66 0 1.32 0 2 0 C2 0.99 2 1.98 2 3 C2.928125 3.12375 2.928125 3.12375 3.875 3.25 C6 4 6 4 7.25 6.0625 C7.4975 6.701875 7.745 7.34125 8 8 C4.11137013 6.73882275 2.10624401 5.54735833 0 2 C0 1.34 0 0.68 0 0 Z " fill="#2A4E7B" transform="translate(304,128)"/>
<path d="M0 0 C0.99 0.99 1.98 1.98 3 3 C2.67 3.99 2.34 4.98 2 6 C1.01 5.67 0.02 5.34 -1 5 C-1 4.34 -1 3.68 -1 3 C-1.99 2.67 -2.98 2.34 -4 2 C-2.68 1.34 -1.36 0.68 0 0 Z " fill="#405F93" transform="translate(261,123)"/>
<path d="M0 0 C1.98 0.66 3.96 1.32 6 2 C6.33 1.34 6.66 0.68 7 0 C7 1.32 7 2.64 7 4 C4.125 4.125 4.125 4.125 1 4 C0.34 3.34 -0.32 2.68 -1 2 C-0.67 1.34 -0.34 0.68 0 0 Z " fill="#B30B08" transform="translate(264,360)"/>
<path d="M0 0 C1.65 0 3.3 0 5 0 C5 3.3 5 6.6 5 10 C4.67 10 4.34 10 4 10 C3.67 7.69 3.34 5.38 3 3 C2.01 3 1.02 3 0 3 C0 2.01 0 1.02 0 0 Z " fill="#D1080A" transform="translate(280,337)"/>
<path d="M0 0 C-5.625 2 -5.625 2 -9 2 C-9 1.01 -9 0.02 -9 -1 C-3.375 -2.25 -3.375 -2.25 0 0 Z " fill="#A11214" transform="translate(237,336)"/>
<path d="M0 0 C0.33 0.66 0.66 1.32 1 2 C0.0625 4.125 0.0625 4.125 -1 6 C-1.66 6 -2.32 6 -3 6 C-3.33 6.99 -3.66 7.98 -4 9 C-4 7 -4 5 -4 3 C-2 1.375 -2 1.375 0 0 Z " fill="#2B3B54" transform="translate(192,160)"/>
<path d="M0 0 C0.33 0.99 0.66 1.98 1 3 C-0.75 4.5625 -0.75 4.5625 -3 6 C-5.25 5.6875 -5.25 5.6875 -7 5 C-6.34 5 -5.68 5 -5 5 C-5 4.34 -5 3.68 -5 3 C-2.5 1.375 -2.5 1.375 0 0 Z " fill="#2E425F" transform="translate(200,154)"/>
<path d="M0 0 C0.33 0 0.66 0 1 0 C1.42317708 2.01822917 1.84635417 4.03645833 2.26953125 6.0546875 C2.92308838 8.37046549 2.92308838 8.37046549 6 10 C4.35 10 2.7 10 1 10 C-0.80411967 7.24075815 -1.0127245 6.11027897 -0.625 2.75 C-0.41875 1.8425 -0.2125 0.935 0 0 Z " fill="#AB261E" transform="translate(128,354)"/>
<path d="M0 0 C1.32 0 2.64 0 4 0 C4 0.66 4 1.32 4 2 C5.32 2.66 6.64 3.32 8 4 C7.67 4.99 7.34 5.98 7 7 C5.83040013 6.02433888 4.66438823 5.044375 3.5 4.0625 C2.8503125 3.51722656 2.200625 2.97195312 1.53125 2.41015625 C1.0259375 1.94480469 0.520625 1.47945312 0 1 C0 0.67 0 0.34 0 0 Z " fill="#354A66" transform="translate(270,136)"/>
<path d="M0 0 C2.97 0.33 5.94 0.66 9 1 C7.25 2.5625 7.25 2.5625 5 4 C2.8125 3.875 2.8125 3.875 1 3 C0.67 2.01 0.34 1.02 0 0 Z " fill="#D70F0F" transform="translate(103,345)"/>
<path d="M0 0 C0.93065133 2.60582371 1.14917407 3.64198224 0.0625 6.25 C-0.4634375 7.11625 -0.4634375 7.11625 -1 8 C-2.0625 6.1875 -2.0625 6.1875 -3 4 C-2.67 3.01 -2.34 2.02 -2 1 C-1.34 0.67 -0.68 0.34 0 0 Z " fill="#E90103" transform="translate(234,338)"/>
<path d="M0 0 C1.98 0 3.96 0 6 0 C6 1.32 6 2.64 6 4 C4.35 3.67 2.7 3.34 1 3 C0.67 2.01 0.34 1.02 0 0 Z " fill="#EE0C0E" transform="translate(344,338)"/>
<path d="M0 0 C1.32 0 2.64 0 4 0 C3.67 1.65 3.34 3.3 3 5 C2.34 5 1.68 5 1 5 C0.34 3.68 -0.32 2.36 -1 1 C-0.67 0.67 -0.34 0.34 0 0 Z " fill="#DE040A" transform="translate(131,337)"/>
<path d="M0 0 C1.98 0 3.96 0 6 0 C5.67 1.32 5.34 2.64 5 4 C3.68 4 2.36 4 1 4 C0.67 2.68 0.34 1.36 0 0 Z " fill="#C60409" transform="translate(307,337)"/>
<path d="M0 0 C2.31 0.33 4.62 0.66 7 1 C4.03312999 2.64826111 1.34373475 3.44271087 -2 4 C-1.34 2.68 -0.68 1.36 0 0 Z " fill="#E20107" transform="translate(105,326)"/>
<path d="M0 0 C0 0.99 0 1.98 0 3 C-0.99 3 -1.98 3 -3 3 C-3.33 3.99 -3.66 4.98 -4 6 C-4.66 5.67 -5.32 5.34 -6 5 C-3.74193548 0 -3.74193548 0 0 0 Z " fill="#880F15" transform="translate(175,323)"/>
<path d="M0 0 C2.475 0.495 2.475 0.495 5 1 C5 2.32 5 3.64 5 5 C2.525 4.01 2.525 4.01 0 3 C0 2.01 0 1.02 0 0 Z " fill="#305186" transform="translate(251,159)"/>
<path d="M0 0 C3.7952131 1.49097658 5.61042731 3.75700849 8 7 C7.01 7 6.02 7 5 7 C5 6.34 5 5.68 5 5 C4.01 4.67 3.02 4.34 2 4 C2 3.34 2 2.68 2 2 C1.34 2 0.68 2 0 2 C0 1.34 0 0.68 0 0 Z " fill="#2D4264" transform="translate(288,110)"/>
<path d="M0 0 C0.99 0 1.98 0 3 0 C3.1875 2.375 3.1875 2.375 3 5 C2.01 5.66 1.02 6.32 0 7 C0 4.69 0 2.38 0 0 Z " fill="#2D5797" transform="translate(123,90)"/>
<path d="M0 0 C1.32 0.33 2.64 0.66 4 1 C4.33 2.32 4.66 3.64 5 5 C3.35 4.67 1.7 4.34 0 4 C0 2.68 0 1.36 0 0 Z " fill="#A61017" transform="translate(317,323)"/>
<path d="M0 0 C2.875 0.3125 2.875 0.3125 6 1 C6.66 1.99 7.32 2.98 8 4 C4 4 4 4 2 3 C2 2.34 2 1.68 2 1 C1.34 0.67 0.68 0.34 0 0 Z " fill="#43649A" transform="translate(158,271)"/>
<path d="M0 0 C0.33 0 0.66 0 1 0 C1 4.29 1 8.58 1 13 C0.01 12.01 -0.98 11.02 -2 10 C-1.67 9.67 -1.34 9.34 -1 9 C-0.76807135 7.48530552 -0.58784762 5.96245438 -0.4375 4.4375 C-0.35371094 3.61121094 -0.26992188 2.78492188 -0.18359375 1.93359375 C-0.12300781 1.29550781 -0.06242187 0.65742188 0 0 Z " fill="#324468" transform="translate(267,224)"/>
<path d="M0 0 C2.6855594 2.6855594 3.06049974 5.37621328 4 9 C3.01 9.495 3.01 9.495 2 10 C-0.09350689 6.5980513 -0.17942163 3.94727588 0 0 Z " fill="#314464" transform="translate(154,214)"/>
<path d="M0 0 C0.6875 1.8125 0.6875 1.8125 1 4 C-0.4375 5.75 -0.4375 5.75 -2 7 C-2.66 5.68 -3.32 4.36 -4 3 C-3.01 2.67 -2.02 2.34 -1 2 C-0.67 1.34 -0.34 0.68 0 0 Z " fill="#36537A" transform="translate(189,166)"/>
<path d="M0 0 C2 1 2 1 2 1 Z " fill="#61123C" transform="translate(310,333)"/>
<path d="" fill="#802020" transform="translate(0,0)"/>
<path d="M0 0 C2 1 2 1 2 1 Z " fill="#681818" transform="translate(179,323)"/>
<path d="M0 0 C2 1 2 1 2 1 Z " fill="#281414" transform="translate(169,323)"/>
<path d="M0 0 C2 1 2 1 2 1 Z " fill="#000000" transform="translate(183,132)"/>
<path d="" fill="#800080" transform="translate(0,0)"/>
<path d="" fill="#804040" transform="translate(0,0)"/>
<path d="" fill="#804040" transform="translate(0,0)"/>
<path d="" fill="#993333" transform="translate(0,0)"/>
<path d="" fill="#000000" transform="translate(0,0)"/>
<path d="" fill="#800000" transform="translate(0,0)"/>
<path d="" fill="#800000" transform="translate(0,0)"/>
<path d="" fill="#404040" transform="translate(0,0)"/>
<path d="" fill="#000000" transform="translate(0,0)"/>
<path d="" fill="#404040" transform="translate(0,0)"/>
<path d="" fill="#663333" transform="translate(0,0)"/>
<path d="" fill="#800000" transform="translate(0,0)"/>
<path d="" fill="#000000" transform="translate(0,0)"/>
<path d="" fill="#000000" transform="translate(0,0)"/>
<path d="" fill="#555555" transform="translate(0,0)"/>
<path d="" fill="#008080" transform="translate(0,0)"/>
<path d="" fill="#555555" transform="translate(0,0)"/>
<path d="" fill="#000000" transform="translate(0,0)"/>
<path d="" fill="#000000" transform="translate(0,0)"/>
<path d="" fill="#244949" transform="translate(0,0)"/>
<path d="" fill="#2A2A55" transform="translate(0,0)"/>
<path d="" fill="#494949" transform="translate(0,0)"/>
<path d="" fill="#000000" transform="translate(0,0)"/>
</svg>
